<svg width="22" height="9" viewBox="0 0 22 9" fill="none" xmlns="http://www.w3.org/2000/svg">
<path fill-rule="evenodd" clip-rule="evenodd" d="M0.296 5.476H0.288H17.244L17.144 8.333C17.144 8.333 17.1654 8.76436 17.316 8.915C17.37 8.971 17.442 9.001 17.52 9.001C17.597 9.001 17.669 8.971 17.723 8.917L21.916 4.706C21.97 4.651 22 4.578 22 4.5C22 4.423 21.97 4.35 21.916 4.297L17.723 0.084C17.669 0.031 17.597 0 17.52 0C17.442 0 17.37 0.031 17.316 0.084C17.1289 0.272207 17.144 0.392638 17.144 0.662L17.257 3.527H0.292C0.133 3.527 0 3.662 0 3.822V5.192C0 5.351 0.137 5.476 0.296 5.476Z" fill="white"/>
</svg>
