<svg width="23" height="10" viewBox="0 0 23 10" >
<path fill-rule="evenodd" clip-rule="evenodd" d="M22.205 4.024L22.213 4.026L5.25698 4.026L5.35698 1.168C5.35698 1.08203 5.35698 0.968751 5.35698 0.968751C5.35698 0.968751 5.35698 0.855283 5.35698 0.765626L5.18498 0.585002C5.12998 0.530002 5.05798 0.501001 4.98098 0.501001C4.90398 0.501001 4.83197 0.530001 4.77697 0.584001L0.584976 4.796C0.530976 4.85 0.500976 5 0.500976 5C0.500976 5 0.530976 5.15 0.584976 5.204L4.77698 9.417C4.83198 9.471 4.90398 9.5 4.98098 9.5C5.05798 9.5 5.24676 9.471 5.30176 9.417L5.35698 9.243C5.35698 9.14844 5.35774 9.10569 5.35698 9.01953C5.35623 8.93518 5.35698 8.9336 5.35698 8.84L5.24398 5.975L22.209 5.975C22.368 5.975 22.501 5.838 22.501 5.679L22.501 4.309C22.501 4.15 22.364 4.024 22.205 4.024Z" fill="#A3BBC8"/>
</svg>
