<svg width="22" height="9" viewBox="0 0 22 9" fill="none" xmlns="http://www.w3.org/2000/svg">
<path fill-rule="evenodd" clip-rule="evenodd" d="M0.296 5.476L0.288 5.474H17.244L17.144 8.332C17.144 8.41797 17.144 8.53125 17.144 8.53125C17.144 8.53125 17.144 8.64472 17.144 8.73438L17.316 8.915C17.371 8.97 17.443 8.999 17.52 8.999C17.597 8.999 17.669 8.97 17.724 8.916L21.916 4.704C21.97 4.65 22 4.5 22 4.5C22 4.5 21.97 4.35 21.916 4.296L17.724 0.083C17.669 0.029 17.597 0 17.52 0C17.443 0 17.2542 0.029 17.1992 0.083L17.144 0.257C17.144 0.351562 17.1432 0.394316 17.144 0.480469C17.1447 0.56482 17.144 0.566406 17.144 0.66L17.257 3.525H0.292C0.133 3.525 0 3.662 0 3.821V5.191C0 5.35 0.137 5.476 0.296 5.476Z" fill="#A3BBC8"/>
</svg>
