<svg width="23" height="10" viewBox="0 0 23 10" fill="none" xmlns="http://www.w3.org/2000/svg">
<path fill-rule="evenodd" clip-rule="evenodd" d="M0.796977 5.97698L0.788977 5.97498L17.745 5.97498L17.645 8.83298C17.645 8.91895 17.645 9.03223 17.645 9.03223C17.645 9.03223 17.645 9.14569 17.645 9.23535L17.817 9.41598C17.872 9.47098 17.944 9.49998 18.021 9.49998C18.098 9.49998 18.17 9.47098 18.225 9.41698L22.417 5.20498C22.471 5.15098 22.501 5.00098 22.501 5.00098C22.501 5.00098 22.471 4.85098 22.417 4.79698L18.225 0.583977C18.17 0.529977 18.098 0.500977 18.021 0.500977C17.944 0.500977 17.7552 0.529977 17.7002 0.583977L17.645 0.757977C17.645 0.852539 17.6442 0.895292 17.645 0.981445C17.6457 1.0658 17.645 1.06738 17.645 1.16098L17.758 4.02598L0.792977 4.02598C0.633977 4.02598 0.500977 4.16298 0.500977 4.32198L0.500977 5.69198C0.500977 5.85098 0.637977 5.97698 0.796977 5.97698Z" fill="#A3BBC8"/>
</svg>
