<svg width="18" height="16" viewBox="0 0 18 16" fill="none" xmlns="http://www.w3.org/2000/svg">
<path fill-rule="evenodd" clip-rule="evenodd" d="M8.93 15.523C8.835 15.523 8.739 15.505 8.65 15.467C8.297 15.318 0 11.718 0 4.708C0.091 2.058 2.207 0 4.818 0C6.561 0 8.084 0.918 8.93 2.31C9.777 0.918 11.299 0 13.042 0C15.651 0 17.767 2.058 17.859 4.684C17.859 11.718 9.562 15.318 9.21 15.467C9.12 15.505 9.025 15.523 8.93 15.523ZM4.818 1.385C2.971 1.385 1.475 2.855 1.41 4.731C1.41 10.139 7.535 13.394 8.93 14.066C10.325 13.394 16.45 10.136 16.45 4.708C16.385 2.855 14.887 1.385 13.042 1.385C11.197 1.385 9.7 2.855 9.634 4.731C9.622 5.104 9.31 5.4 8.93 5.4C8.55 5.4 8.238 5.104 8.225 4.731C8.161 2.855 6.664 1.385 4.818 1.385Z" fill="#243F4D"/>
</svg>
