<svg width="149" height="39" viewBox="0 0 149 39" fill="none" xmlns="http://www.w3.org/2000/svg">
<path fill-rule="evenodd" clip-rule="evenodd" d="M49.7279 38.6493C49.3229 38.9793 48.8249 38.8623 48.8199 38.8613L0.778939 29.0633C0.764939 29.0603 0.396939 28.9883 0.156939 28.6763C-0.0820613 28.3653 -6.13481e-05 28.0103 0.0899387 27.8283C0.177939 27.6483 6.50094 14.8973 6.67194 14.5723C6.84294 14.2473 7.04694 14.1853 7.17894 14.1203L42.3729 0.0702722C42.3729 0.0702722 42.9429 -0.117728 43.3379 0.121272C43.7339 0.360272 43.7869 0.766272 43.7869 0.766272L50.0379 37.8453C50.0379 37.8453 50.1319 38.3203 49.7279 38.6493ZM43.4769 35.9503L22.9489 24.5393L5.42594 28.1893L43.4769 35.9503ZM45.7429 35.1123L36.0319 21.8083L25.6929 23.9673L45.7429 35.1123ZM2.73594 26.9263L20.5689 23.2123L8.04694 16.2293L2.73594 26.9263ZM9.70894 15.0573L23.3099 22.6413L35.6819 20.0583L41.2399 2.47027L9.70894 15.0573ZM42.4869 5.13527L37.5839 20.6553L47.3629 34.0523L42.4869 5.13527Z" fill="#A3BBC8"/>
<path d="M75.6 32.36C73.392 32.36 71.508 31.976 69.948 31.208C68.412 30.44 67.212 29.336 66.348 27.896C65.508 26.432 65.052 24.692 64.98 22.676C64.956 21.644 64.944 20.54 64.944 19.364C64.944 18.164 64.956 17.036 64.98 15.98C65.052 13.988 65.508 12.284 66.348 10.868C67.212 9.452 68.424 8.36 69.984 7.592C71.568 6.824 73.44 6.44 75.6 6.44C77.352 6.44 78.888 6.68 80.208 7.16C81.528 7.616 82.62 8.216 83.484 8.96C84.372 9.68 85.032 10.46 85.464 11.3C85.92 12.14 86.16 12.92 86.184 13.64C86.208 13.856 86.148 14.036 86.004 14.18C85.86 14.324 85.668 14.396 85.428 14.396H81.72C81.48 14.396 81.3 14.348 81.18 14.252C81.06 14.156 80.952 14.012 80.856 13.82C80.664 13.316 80.364 12.824 79.956 12.344C79.548 11.84 78.996 11.42 78.3 11.084C77.604 10.748 76.704 10.58 75.6 10.58C73.968 10.58 72.66 11.012 71.676 11.876C70.716 12.74 70.2 14.168 70.128 16.16C70.056 18.248 70.056 20.36 70.128 22.496C70.2 24.536 70.728 26 71.712 26.888C72.72 27.776 74.04 28.22 75.672 28.22C76.752 28.22 77.712 28.028 78.552 27.644C79.416 27.26 80.088 26.66 80.568 25.844C81.072 25.028 81.324 23.984 81.324 22.712V21.596H76.932C76.692 21.596 76.488 21.512 76.32 21.344C76.152 21.176 76.068 20.96 76.068 20.696V18.788C76.068 18.524 76.152 18.308 76.32 18.14C76.488 17.972 76.692 17.888 76.932 17.888H85.536C85.8 17.888 86.004 17.972 86.148 18.14C86.316 18.308 86.4 18.524 86.4 18.788V22.568C86.4 24.584 85.956 26.324 85.068 27.788C84.204 29.252 82.956 30.38 81.324 31.172C79.716 31.964 77.808 32.36 75.6 32.36ZM91.483 32C91.243 32 91.039 31.916 90.871 31.748C90.703 31.58 90.619 31.376 90.619 31.136V7.304C90.619 7.064 90.703 6.86 90.871 6.692C91.039 6.524 91.243 6.44 91.483 6.44H94.471C94.711 6.44 94.915 6.524 95.083 6.692C95.251 6.86 95.335 7.064 95.335 7.304V31.136C95.335 31.376 95.251 31.58 95.083 31.748C94.915 31.916 94.711 32 94.471 32H91.483ZM108.174 32.36C105.51 32.36 103.398 31.592 101.838 30.056C100.278 28.52 99.4384 26.336 99.3184 23.504C99.2944 23.264 99.2824 22.964 99.2824 22.604C99.2824 22.22 99.2944 21.92 99.3184 21.704C99.4144 19.904 99.8224 18.344 100.542 17.024C101.286 15.704 102.306 14.696 103.602 14C104.898 13.28 106.422 12.92 108.174 12.92C110.118 12.92 111.75 13.328 113.07 14.144C114.39 14.936 115.386 16.052 116.058 17.492C116.73 18.908 117.066 20.552 117.066 22.424V23.18C117.066 23.42 116.982 23.624 116.814 23.792C116.646 23.96 116.43 24.044 116.166 24.044H104.214C104.214 24.044 104.214 24.08 104.214 24.152C104.214 24.224 104.214 24.284 104.214 24.332C104.238 25.172 104.394 25.952 104.682 26.672C104.994 27.368 105.438 27.932 106.014 28.364C106.614 28.796 107.322 29.012 108.138 29.012C108.81 29.012 109.374 28.916 109.83 28.724C110.286 28.508 110.658 28.268 110.946 28.004C111.234 27.74 111.438 27.524 111.558 27.356C111.774 27.068 111.942 26.9 112.062 26.852C112.206 26.78 112.41 26.744 112.674 26.744H115.77C116.01 26.744 116.202 26.816 116.346 26.96C116.514 27.104 116.586 27.284 116.562 27.5C116.538 27.884 116.334 28.352 115.95 28.904C115.59 29.456 115.062 29.996 114.366 30.524C113.67 31.052 112.794 31.496 111.738 31.856C110.706 32.192 109.518 32.36 108.174 32.36ZM104.214 21.02H112.17V20.912C112.17 19.976 112.014 19.16 111.702 18.464C111.39 17.768 110.934 17.216 110.334 16.808C109.734 16.4 109.014 16.196 108.174 16.196C107.334 16.196 106.614 16.4 106.014 16.808C105.414 17.216 104.958 17.768 104.646 18.464C104.358 19.16 104.214 19.976 104.214 20.912V21.02ZM128.952 32.36C126.288 32.36 124.176 31.592 122.616 30.056C121.056 28.52 120.216 26.336 120.096 23.504C120.072 23.264 120.06 22.964 120.06 22.604C120.06 22.22 120.072 21.92 120.096 21.704C120.192 19.904 120.6 18.344 121.32 17.024C122.064 15.704 123.084 14.696 124.38 14C125.676 13.28 127.2 12.92 128.952 12.92C130.896 12.92 132.528 13.328 133.848 14.144C135.168 14.936 136.164 16.052 136.836 17.492C137.508 18.908 137.844 20.552 137.844 22.424V23.18C137.844 23.42 137.76 23.624 137.592 23.792C137.424 23.96 137.208 24.044 136.944 24.044H124.992C124.992 24.044 124.992 24.08 124.992 24.152C124.992 24.224 124.992 24.284 124.992 24.332C125.016 25.172 125.172 25.952 125.46 26.672C125.772 27.368 126.216 27.932 126.792 28.364C127.392 28.796 128.1 29.012 128.916 29.012C129.588 29.012 130.152 28.916 130.608 28.724C131.064 28.508 131.436 28.268 131.724 28.004C132.012 27.74 132.216 27.524 132.336 27.356C132.552 27.068 132.72 26.9 132.84 26.852C132.984 26.78 133.188 26.744 133.452 26.744H136.548C136.788 26.744 136.98 26.816 137.124 26.96C137.292 27.104 137.364 27.284 137.34 27.5C137.316 27.884 137.112 28.352 136.728 28.904C136.368 29.456 135.84 29.996 135.144 30.524C134.448 31.052 133.572 31.496 132.516 31.856C131.484 32.192 130.296 32.36 128.952 32.36ZM124.992 21.02H132.948V20.912C132.948 19.976 132.792 19.16 132.48 18.464C132.168 17.768 131.712 17.216 131.112 16.808C130.512 16.4 129.792 16.196 128.952 16.196C128.112 16.196 127.392 16.4 126.792 16.808C126.192 17.216 125.736 17.768 125.424 18.464C125.136 19.16 124.992 19.976 124.992 20.912V21.02ZM142.313 32C142.073 32 141.869 31.916 141.701 31.748C141.533 31.58 141.449 31.376 141.449 31.136V27.572C141.449 27.308 141.533 27.092 141.701 26.924C141.869 26.756 142.073 26.672 142.313 26.672H145.913C146.153 26.672 146.357 26.756 146.525 26.924C146.693 27.092 146.777 27.308 146.777 27.572V31.136C146.777 31.376 146.693 31.58 146.525 31.748C146.357 31.916 146.153 32 145.913 32H142.313Z" fill="#436372"/>
</svg>
