<svg width="19" height="13" viewBox="0 0 19 13" fill="none" xmlns="http://www.w3.org/2000/svg">
<path fill-rule="evenodd" clip-rule="evenodd" d="M18.2324 12.008L18.2314 12.01L18.2294 12.012C17.9964 12.235 17.6764 12.373 17.3224 12.373H1.8944C1.5404 12.373 1.2204 12.235 0.987398 12.011L0.985398 12.01L0.984398 12.008C0.752398 11.784 0.608398 11.476 0.608398 11.136V1.237C0.608398 0.555 1.1854 0 1.8944 0H17.3224C18.0314 0 18.6084 0 18.6084 0.999988V10.965C18.6084 11.305 18.4644 11.784 18.2324 12.008ZM8.1444 5.704L2.0714 11.548H17.1454L11.0714 5.704L10.3454 6.193C10.1254 6.342 9.98438 6.5 9.48438 6.5C9.3624 6.5 9.0914 6.342 8.8714 6.193L8.1444 5.704ZM1.4714 1.209C1.4704 1.219 1.4654 1.227 1.4654 1.237V10.965L7.4314 5.223L1.4714 1.209ZM2.3964 0.825L9.3624 5.517C9.5094 5.616 9.7074 5.616 9.8544 5.517L16.8194 0.825H2.3964ZM17.7377 0.999988C17.8655 0.90934 17.9844 0.824983 17.9844 0.824983L11.7854 5.223L17.7514 10.965L17.7377 0.999988Z" fill="#436372"/>
</svg>
