<?xml version="1.0" encoding="UTF-8"?>
<svg xmlns="http://www.w3.org/2000/svg" xmlns:xlink="http://www.w3.org/1999/xlink" width="16px" height="16px" viewBox="0 0 16 16" version="1.1">
<g id="surface1">
<path style="fill:none;stroke-width:2;stroke-linecap:butt;stroke-linejoin:miter;stroke:rgb(20%,21.176471%,24.705882%);stroke-opacity:1;stroke-miterlimit:4;" d="M 4.998047 6 L 19.001953 6 C 20.103516 6 21 6.896484 21 7.998047 L 21 19.001953 C 21 20.103516 20.103516 21 19.001953 21 L 4.998047 21 C 3.896484 21 3 20.103516 3 19.001953 L 3 7.998047 C 3 6.896484 3.896484 6 4.998047 6 Z M 4.998047 6 " transform="matrix(0.666667,0,0,0.666667,0,0)"/>
<path style=" stroke:none;fill-rule:nonzero;fill:rgb(20%,21.176471%,24.705882%);fill-opacity:1;" d="M 2 6.667969 C 2 5.410156 2 4.78125 2.390625 4.390625 C 2.78125 4 3.410156 4 4.667969 4 L 11.332031 4 C 12.589844 4 13.21875 4 13.609375 4.390625 C 14 4.78125 14 5.410156 14 6.667969 Z M 2 6.667969 "/>
<path style="fill:none;stroke-width:2;stroke-linecap:round;stroke-linejoin:miter;stroke:rgb(20%,21.176471%,24.705882%);stroke-opacity:1;stroke-miterlimit:4;" d="M 7.001953 3 L 7.001953 6 " transform="matrix(0.666667,0,0,0.666667,0,0)"/>
<path style="fill:none;stroke-width:2;stroke-linecap:round;stroke-linejoin:miter;stroke:rgb(20%,21.176471%,24.705882%);stroke-opacity:1;stroke-miterlimit:4;" d="M 16.998047 3 L 16.998047 6 " transform="matrix(0.666667,0,0,0.666667,0,0)"/>
<path style=" stroke:none;fill-rule:nonzero;fill:rgb(20%,21.176471%,24.705882%);fill-opacity:1;" d="M 5 8 L 7 8 C 7.183594 8 7.332031 8.148438 7.332031 8.332031 L 7.332031 9 C 7.332031 9.183594 7.183594 9.332031 7 9.332031 L 5 9.332031 C 4.816406 9.332031 4.667969 9.183594 4.667969 9 L 4.667969 8.332031 C 4.667969 8.148438 4.816406 8 5 8 Z M 5 8 "/>
<path style=" stroke:none;fill-rule:nonzero;fill:rgb(20%,21.176471%,24.705882%);fill-opacity:1;" d="M 5 10.667969 L 7 10.667969 C 7.183594 10.667969 7.332031 10.816406 7.332031 11 L 7.332031 11.667969 C 7.332031 11.851562 7.183594 12 7 12 L 5 12 C 4.816406 12 4.667969 11.851562 4.667969 11.667969 L 4.667969 11 C 4.667969 10.816406 4.816406 10.667969 5 10.667969 Z M 5 10.667969 "/>
<path style=" stroke:none;fill-rule:nonzero;fill:rgb(20%,21.176471%,24.705882%);fill-opacity:1;" d="M 9 8 L 11 8 C 11.183594 8 11.332031 8.148438 11.332031 8.332031 L 11.332031 9 C 11.332031 9.183594 11.183594 9.332031 11 9.332031 L 9 9.332031 C 8.816406 9.332031 8.667969 9.183594 8.667969 9 L 8.667969 8.332031 C 8.667969 8.148438 8.816406 8 9 8 Z M 9 8 "/>
<path style=" stroke:none;fill-rule:nonzero;fill:rgb(20%,21.176471%,24.705882%);fill-opacity:1;" d="M 9 10.667969 L 11 10.667969 C 11.183594 10.667969 11.332031 10.816406 11.332031 11 L 11.332031 11.667969 C 11.332031 11.851562 11.183594 12 11 12 L 9 12 C 8.816406 12 8.667969 11.851562 8.667969 11.667969 L 8.667969 11 C 8.667969 10.816406 8.816406 10.667969 9 10.667969 Z M 9 10.667969 "/>
</g>
</svg>
