<svg width="18" height="18" viewBox="0 0 18 18" fill="none" xmlns="http://www.w3.org/2000/svg">
<path fill-rule="evenodd" clip-rule="evenodd" d="M16.427 17.021C16.276 17.021 16.124 16.963 16.008 16.847L10.709 11.549C9.576 12.494 8.119 13.063 6.531 13.063C2.93 13.063 0 10.133 0 6.532C0 2.93 2.93 0 6.531 0C10.133 0 13.062 2.93 13.062 6.532C13.062 8.119 12.494 9.576 11.549 10.71L16.847 16.008C16.963 16.124 17.021 16.276 17.021 16.428C17.021 16.579 16.963 16.731 16.847 16.847C16.731 16.963 16.579 17.021 16.427 17.021ZM6.531 1.188C3.585 1.188 1.188 3.585 1.188 6.532C1.188 9.478 3.585 11.876 6.531 11.876C9.478 11.876 11.876 9.478 11.876 6.532C11.876 3.585 9.478 1.188 6.531 1.188Z" fill="#094074"/>
</svg>
