<svg width="16" height="16" viewBox="0 0 16 16" fill="none" xmlns="http://www.w3.org/2000/svg">
<g clip-path="url(#clip0_20_2)">
<path fill-rule="evenodd" clip-rule="evenodd" d="M15.321 14.61C14.899 15.064 13.327 16.025 11.59 14.318L9.53196 11.968C8.75196 12.313 7.89096 12.507 6.98296 12.507C3.51496 12.507 0.704956 9.70497 0.704956 6.24997C0.704956 2.79397 3.51196 -0.00402832 6.97996 -0.00402832C10.445 -0.00402832 13.259 2.79697 13.259 6.25297C13.259 7.18197 13.056 8.06497 12.691 8.85697L15.027 10.893C16.73 12.64 15.773 14.159 15.321 14.61ZM6.97996 1.30497C4.23796 1.30497 2.01496 3.52097 2.01496 6.25297C2.01496 8.98497 4.23496 11.201 6.97996 11.201C9.72196 11.201 11.946 8.98497 11.946 6.25297C11.946 3.52097 9.72196 1.30497 6.97996 1.30497ZM14.179 11.866L12.017 9.98597C11.634 10.498 11.175 10.953 10.654 11.326L12.526 13.513C12.819 13.837 13.652 14.38 14.407 13.739C14.616 13.563 15.04 12.671 14.179 11.866ZM6.49396 10.085C5.68296 9.92297 4.93696 9.53497 4.35096 8.95397C3.76796 8.37297 3.37796 7.62697 3.21496 6.81797C3.14996 6.46397 3.34296 6.14197 3.70196 6.07597C4.05796 6.01097 4.38196 6.20697 4.44796 6.55997C4.54396 7.14197 4.80296 7.62697 5.22696 8.04897C5.64796 8.43797 6.16896 8.72697 6.72096 8.82597C7.04596 8.89197 7.27296 9.21597 7.20796 9.56897C7.14196 9.89297 6.84896 10.125 6.49396 10.085Z" fill="#243F4D"/>
</g>
<defs>
<clipPath id="clip0_20_2">
<rect width="16" height="16" fill="white"/>
</clipPath>
</defs>
</svg>
