<svg width="19" height="12" viewBox="0 0 19 12" fill="none" xmlns="http://www.w3.org/2000/svg">
<path fill-rule="evenodd" clip-rule="evenodd" d="M18.0239 4.635V4.69L18.0129 6.132L18.0119 6.192H17.9519H16.0209L16.0059 8.123V8.178H15.9509H14.5029H14.4479L14.4489 8.123L14.4629 6.192H12.5329H12.4719L12.4729 6.132L12.4839 4.69V4.635H12.5449H14.4749L14.4899 2.699V2.644H14.5449H15.9929H16.0479V2.699L16.0329 4.635H17.9639H18.0239ZM7.23392 11.212C6.72692 11.343 6.21192 11.407 5.69392 11.407C5.58392 11.407 5.47292 11.404 5.36192 11.398C4.24392 11.332 3.22692 10.981 2.32592 10.317C1.16392 9.462 0.432922 8.321 0.124922 6.911C0.0139225 6.401 -0.0260775 5.891 0.0169225 5.376C0.0969225 4.158 0.521922 3.066 1.30292 2.117C2.11092 1.124 3.14092 0.477 4.37292 0.165C4.68592 0.082 4.99892 0.033 5.31692 0.016C5.49792 0.011 5.67992 0 5.86092 0C6.82592 0.011 7.72892 0.252 8.55892 0.74C9.11592 1.059 9.43192 1.382 9.56792 1.481C8.99892 2.04 8.45192 2.589 7.89392 3.137C7.47892 2.78 7.02092 2.452 6.22692 2.331C6.06192 2.307 5.89892 2.295 5.73992 2.295C4.14592 2.295 2.80992 3.448 2.45492 4.958C2.36992 5.298 2.34592 5.644 2.37492 5.99C2.49692 7.394 3.43692 8.546 4.70592 8.957C5.02992 9.059 5.36492 9.107 5.70192 9.107C5.78092 9.107 5.85992 9.105 5.93892 9.1C6.53792 9.061 7.09792 8.902 7.60492 8.568C8.45992 7.986 8.73592 7.076 8.73792 6.851H5.68292C5.68292 6.776 5.69392 5.348 5.69892 4.651L5.70492 4.558H11.0689C11.3579 6.231 11.0979 7.991 10.0559 9.368C9.33592 10.317 8.37692 10.915 7.23392 11.212Z" fill="#A1A1A1"/>
</svg>
