<svg width="14" height="14" viewBox="0 0 14 14" fill="none" xmlns="http://www.w3.org/2000/svg">
<path fill-rule="evenodd" clip-rule="evenodd" d="M13.4302 10.773C13.0062 12.331 11.9902 13.252 10.4142 13.505C9.82523 13.6 8.23423 13.657 6.64623 13.657C5.02023 13.657 3.39623 13.597 2.85023 13.455C1.30123 13.055 0.377227 12.046 0.131227 10.477C-0.0527726 9.325 -0.0717726 3.972 0.260227 2.809C0.694227 1.295 1.70523 0.406 3.23723 0.154C3.93123 0.04 5.28923 0 6.66023 0C7.93523 0 9.22123 0.035 9.99523 0.077C10.9332 0.127 11.7912 0.428 12.4882 1.098C13.1532 1.734 13.4932 2.529 13.5782 3.429C13.6802 4.503 13.7462 9.583 13.4302 10.773ZM12.3492 3.544C12.2272 2.342 11.4922 1.553 10.3042 1.366C9.71523 1.277 8.29823 1.237 6.88823 1.237C5.52823 1.237 4.17423 1.274 3.57923 1.338C2.38823 1.476 1.58723 2.211 1.39623 3.396C1.20123 4.651 1.20323 9.347 1.34923 10.291C1.50123 11.272 2.05623 11.947 3.03523 12.221C3.56523 12.37 5.15323 12.423 6.70923 12.423C8.14223 12.423 9.54923 12.378 10.0772 12.32C11.2802 12.188 12.0752 11.448 12.2652 10.252C12.4612 9.051 12.4612 4.668 12.3492 3.544ZM10.4922 4.015C10.0372 4.01 9.67723 3.642 9.68123 3.193C9.68423 2.741 10.0492 2.376 10.5002 2.376H10.5092C10.9602 2.376 11.3242 2.743 11.3212 3.198C11.3172 3.648 10.9472 4.015 10.4922 4.015ZM6.80223 10.334C4.86523 10.334 3.31423 8.765 3.32823 6.829C3.34423 4.893 4.92423 3.324 6.86023 3.33C8.79123 3.33 10.3482 4.899 10.3332 6.835C10.3192 8.765 8.73823 10.334 6.80223 10.334ZM6.86723 4.564H6.84723C5.60623 4.564 4.58323 5.563 4.56323 6.807C4.54323 8.058 5.53823 9.084 6.78923 9.094L6.80923 9.095C8.05123 9.095 9.07323 8.095 9.09423 6.851C9.11423 5.595 8.11823 4.575 6.86723 4.564Z" fill="#A1A1A1"/>
</svg>
