<svg width="15" height="12" viewBox="0 0 15 12" fill="none" xmlns="http://www.w3.org/2000/svg">
<path fill-rule="evenodd" clip-rule="evenodd" d="M14.329 1.389C14.224 1.548 14.119 1.696 13.997 1.839C13.686 2.223 13.327 2.563 12.925 2.854L12.875 2.947C12.888 3.38 12.868 3.814 12.81 4.247C12.693 5.157 12.429 6.029 12.038 6.858C11.626 7.713 11.099 8.487 10.436 9.167C9.308 10.324 7.958 11.071 6.387 11.416C5.848 11.531 5.305 11.592 4.751 11.608C4.662 11.61 4.574 11.612 4.486 11.612C2.898 11.612 1.426 11.188 0.07 10.346L0 10.303C0.232 10.327 0.461 10.34 0.689 10.34C1.464 10.34 2.209 10.195 2.937 9.902C3.438 9.694 3.901 9.43 4.337 9.085C2.818 9.036 1.872 7.938 1.626 7.05C1.808 7.085 1.99 7.102 2.171 7.102C2.408 7.102 2.645 7.073 2.883 7.017L2.927 6.995C2.1 6.803 1.467 6.364 1.033 5.651C0.741 5.179 0.608 4.658 0.612 4.093C1.027 4.313 1.454 4.433 1.915 4.444C1.298 4 0.886 3.413 0.722 2.667C0.557 1.921 0.672 1.213 1.056 0.544C2.627 2.415 4.627 3.441 7.077 3.61C7.062 3.49 7.046 3.391 7.03 3.287C6.953 2.596 7.101 1.954 7.478 1.373C7.95 0.638 8.617 0.182 9.474 0.045C9.656 0.015 9.834 0 10.007 0C10.775 0 11.453 0.294 12.035 0.863C12.071 0.895 12.102 0.913 12.143 0.913C12.156 0.913 12.171 0.911 12.188 0.906C12.792 0.78 13.365 0.561 13.899 0.254L13.937 0.232C13.724 0.912 13.297 1.438 12.691 1.828C13.262 1.768 13.801 1.614 14.329 1.389Z" fill="#A1A1A1"/>
</svg>
