<svg width="54" height="53" viewBox="0 0 54 53" fill="none" xmlns="http://www.w3.org/2000/svg">
<g clip-path="url(#clip0_58_8)">
<path fill-rule="evenodd" clip-rule="evenodd" d="M40.382 26.24C39.92 26.24 39.546 25.866 39.546 25.404V23.363C38.246 22.997 37.289 21.801 37.289 20.384C37.289 18.677 38.677 17.289 40.382 17.289C42.086 17.289 43.474 18.677 43.474 20.384C43.474 21.801 42.517 22.997 41.217 23.363V25.404C41.217 25.866 40.843 26.24 40.382 26.24ZM41.802 20.384C41.802 19.601 41.165 18.962 40.382 18.962C39.598 18.962 38.961 19.6 38.961 20.384C38.961 21.169 39.598 21.806 40.382 21.806C41.165 21.806 41.802 21.169 41.802 20.384ZM48.534 22.737C48.996 22.737 49.37 23.111 49.37 23.573V26.759C49.37 28.438 48.005 29.803 46.328 29.803H34.434C32.757 29.803 31.393 28.438 31.393 26.759V16.012C31.393 14.556 32.42 13.335 33.786 13.037V7.02097C33.786 3.37997 36.745 0.417969 40.381 0.417969C44.018 0.417969 46.976 3.37997 46.976 7.02097V13.037C48.343 13.335 49.37 14.555 49.37 16.011V20.784C49.37 21.246 48.996 21.621 48.534 21.621C48.073 21.621 47.698 21.246 47.698 20.784V16.011C47.698 15.256 47.084 14.64 46.328 14.64H34.434C33.679 14.64 33.065 15.256 33.065 16.011V26.759C33.065 27.515 33.679 28.13 34.434 28.13H46.328C47.084 28.13 47.698 27.515 47.698 26.759V23.573C47.698 23.111 48.073 22.737 48.534 22.737ZM35.458 12.967H45.304V7.02097C45.304 4.30197 43.096 2.09197 40.381 2.09197C37.666 2.09197 35.458 4.30197 35.458 7.02097V12.967ZM5.711 35.228H13.896C14.357 35.228 14.731 35.603 14.731 36.064C14.731 36.527 14.357 36.901 13.895 36.901H5.711C5.249 36.901 4.875 36.527 4.875 36.064C4.875 35.603 5.249 35.228 5.711 35.228ZM5.711 31.236H19.982C20.443 31.236 20.818 31.611 20.818 32.073C20.818 32.535 20.443 32.91 19.982 32.91H5.711C5.249 32.91 4.875 32.535 4.875 32.073C4.875 31.611 5.249 31.236 5.711 31.236ZM29.22 21.355H15.004C14.543 21.355 14.168 20.98 14.168 20.518C14.168 20.056 14.543 19.681 15.004 19.681H29.22C29.682 19.681 30.056 20.056 30.056 20.518C30.056 20.98 29.682 21.355 29.22 21.355ZM29.22 28.497H1.929V40.417C1.929 41.61 2.9 42.582 4.092 42.582H43.427C44.619 42.582 45.589 41.61 45.589 40.417V32.151C45.589 31.69 45.964 31.315 46.425 31.315C46.887 31.315 47.261 31.69 47.261 32.151V40.417C47.261 42.533 45.541 44.254 43.427 44.254H4.092C1.978 44.254 0.257996 42.532 0.257996 40.417V16.797C0.257996 14.68 1.978 12.959 4.092 12.958H29.22C29.682 12.958 30.056 13.333 30.056 13.794C30.056 14.256 29.682 14.631 29.22 14.631H4.092C2.9 14.631 1.929 15.603 1.929 16.797V19.681H11.798C12.259 19.681 12.634 20.056 12.634 20.518C12.634 20.98 12.259 21.354 11.798 21.354H1.929V26.824H29.22C29.682 26.824 30.056 27.199 30.056 27.661C30.056 28.123 29.682 28.497 29.22 28.497Z" fill="#A3BBC8"/>
<path opacity="0.341" fill-rule="evenodd" clip-rule="evenodd" d="M43.1 33.062C49.419 33.062 53.812 37.448 53.812 42.859C53.812 48.27 49.419 52.656 43.1 52.656C38.581 52.656 34.187 48.27 34.187 42.859C34.187 37.448 38.581 33.062 43.1 33.062Z" fill="#A3BBC8"/>
</g>
<defs>
<clipPath id="clip0_58_8">
<rect width="54" height="53" fill="white"/>
</clipPath>
</defs>
</svg>
