<svg width="31" height="44" viewBox="0 0 31 44" fill="#A3BBC8" xmlns="http://www.w3.org/2000/svg">
<path fill-rule="evenodd" clip-rule="evenodd" d="M30.5252 43.0474C30.0352 43.5474 29.3032 43.6874 28.6622 43.4024L22.9972 40.8924L16.4032 43.8094C16.1162 43.9374 15.8082 44.0004 15.5002 44.0004C15.1912 44.0004 14.8832 43.9374 14.5972 43.8094L8.01316 40.8924L2.33916 43.4024C1.69716 43.6874 0.965164 43.5474 0.475164 43.0474C-0.0148361 42.5474 -0.137836 41.8174 0.162164 41.1854L5.15616 30.6694C5.26216 30.4464 5.43916 30.2664 5.66116 30.1564C6.20516 29.8854 6.86916 30.1044 7.14216 30.6474C7.30716 30.9784 7.29016 31.3534 7.12816 31.6564L2.78516 40.8004L7.10516 38.8864C7.67916 38.6314 8.33816 38.6324 8.91116 38.8874L15.4942 41.8034C15.4942 41.8034 15.5012 41.8034 15.5042 41.8034H15.5052L22.0902 38.8864C22.6612 38.6314 23.3192 38.6314 23.8942 38.8864L28.2142 40.8004L23.8722 31.6554C23.6532 31.2484 23.7092 30.7314 24.0462 30.3804C24.4312 29.9784 25.0472 29.9304 25.4872 30.2444C25.6382 30.3524 25.7622 30.4974 25.8442 30.6684L30.8382 41.1864C31.1372 41.8174 31.0152 42.5464 30.5252 43.0474ZM27.8972 20.2834L18.3492 36.2104C17.7452 37.2194 16.6802 37.8214 15.5002 37.8214C14.3202 37.8214 13.2542 37.2194 12.6502 36.2104L3.10216 20.2834C3.09116 20.2634 3.07916 20.2424 3.06916 20.2214C2.05616 18.2534 1.52716 16.0374 1.54016 13.8104C1.56316 10.1684 3.00416 6.72738 5.60116 4.12138C8.19716 1.51538 11.6432 0.0523782 15.3022 0.00137823C19.0692 -0.0506218 22.6212 1.37038 25.3012 4.00238C27.9822 6.63338 29.4592 10.1464 29.4592 13.8944C29.4592 16.1234 28.9452 18.2514 27.9312 20.2214C27.9202 20.2424 27.9082 20.2634 27.8972 20.2834ZM23.7522 5.56438C21.5372 3.39038 18.6132 2.19638 15.5052 2.19638C15.4482 2.19638 15.3902 2.19738 15.3332 2.19838C8.98216 2.28538 3.78516 7.50138 3.74716 13.8234C3.73516 15.7144 4.16316 17.5194 5.01616 19.1894L14.5452 35.0854C14.8372 35.5724 15.3102 35.6254 15.5002 35.6254C15.6902 35.6254 16.1632 35.5724 16.4552 35.0854L25.9832 19.1894C26.8262 17.5404 27.2532 15.7594 27.2532 13.8944C27.2532 10.7394 26.0092 7.78138 23.7522 5.56438ZM15.5002 18.9214C12.7152 18.9214 10.4492 16.6674 10.4492 13.8944C10.4492 11.1224 12.7152 8.86838 15.5002 8.86838C18.2852 8.86838 20.5512 11.1224 20.5512 13.8944C20.5512 16.6674 18.2852 18.9214 15.5002 18.9214ZM15.5002 11.0644C13.9322 11.0644 12.6552 12.3344 12.6552 13.8944C12.6552 15.4564 13.9322 16.7264 15.5002 16.7264C17.0692 16.7264 18.3442 15.4564 18.3442 13.8944C18.3442 12.3344 17.0692 11.0644 15.5002 11.0644Z" />
</svg>
