<svg width="37" height="34" viewBox="0 0 37 34" xmlns="http://www.w3.org/2000/svg">
<path fill-rule="evenodd" clip-rule="evenodd" d="M36.053 33.9523L0.976 34.0003C0.725 34.0003 0.484 33.9023 0.306 33.7283C0.128 33.5543 0.028 33.3163 0.028 33.0693L0 12.8683C0 12.8623 0.001 12.8573 0.001 12.8513C0.005 12.5603 0.147 12.2763 0.409 12.0973L5.731 8.48125V4.64325C5.731 4.12925 6.155 3.71125 6.679 3.71125H12.746L17.963 0.165251C18.288 -0.0557492 18.718 -0.0547491 19.042 0.166251L24.227 3.71125H30.32C30.843 3.71125 31.267 4.12925 31.267 4.64325V8.52525L36.564 12.1463C36.753 12.2763 36.88 12.4613 36.937 12.6653C36.958 12.7113 36.971 12.7943 36.971 12.8493L36.999 33.0193C36.1 33.5323 36.576 33.9513 36.053 33.9523ZM33.226 32.0923L18.514 20.8682L3.748 32.1333L33.226 32.0923ZM5.731 10.7443L2.613 12.8643L5.731 14.9853V10.7443ZM1.897 14.6453L1.92 31.1682L13.363 22.4383L1.897 14.6453ZM18.5 2.06625L16.079 3.71125H20.907L18.5 2.06625ZM29.372 5.57525H7.626V16.2723L14.934 21.2403L17.933 18.9523C18.278 18.6893 18.749 18.6983 19.081 18.9443C19.086 18.9473 19.09 18.9493 19.094 18.9523L22.071 21.2243L29.372 16.2313V5.57525ZM31.267 10.7953V14.9363L34.295 12.8653L31.267 10.7953ZM35.078 14.5993L23.64 22.4202L35.101 31.1643L35.078 14.5993ZM11.137 15.0813C11.137 14.5673 11.561 14.1493 12.085 14.1493H24.915C25.437 14.1493 25.861 14.5673 25.861 15.0813C25.861 15.5963 25.437 16.0142 24.915 16.0142H12.085C11.561 16.0142 11.137 15.5963 11.137 15.0813ZM24.915 11.1673H12.085C11.561 11.1673 11.137 10.7493 11.137 10.2353C11.137 9.72125 11.561 9.30325 12.085 9.30325H24.915C25.437 9.30325 25.861 9.72125 25.861 10.2353C25.861 10.7493 25.437 11.1673 24.915 11.1673Z" fill="#A3BBC8"/>
</svg>
