<svg width="37" height="44" viewBox="0 0 37 44" xmlns="http://www.w3.org/2000/svg">
<path fill-rule="evenodd" clip-rule="evenodd" d="M31.941 21.326C29.151 21.326 26.881 19.086 26.881 16.331C26.881 13.577 29.151 11.336 31.941 11.336C34.73 11.336 36.5 13.577 36.5 16.331C36.5 19.086 34.73 21.326 31.941 21.326ZM31.941 13.286C30.24 13.286 28.857 14.652 28.857 16.331C28.857 18.011 30.24 19.376 31.941 19.376C33.641 19.376 35.025 18.011 35.025 16.331C35.025 14.652 33.641 13.286 31.941 13.286ZM31.941 9.99C29.151 9.99 26.881 7.749 26.881 4.995C26.881 2.24 29.151 0 31.941 0C34.73 0 36.5 2.24 36.5 4.995C36.5 7.749 34.73 9.99 31.941 9.99ZM31.941 1.949C30.24 1.949 28.857 3.316 28.857 4.995C28.857 6.674 30.24 8.041 31.941 8.041C33.641 8.041 35.025 6.674 35.025 4.995C35.025 3.316 33.641 1.949 31.941 1.949ZM18.499 43.999C15.71 43.999 13.44 41.758 13.44 39.004C13.44 36.25 15.71 34.009 18.499 34.009C21.289 34.009 23.559 36.25 23.559 39.004C23.559 41.759 21.289 43.999 18.499 43.999ZM18.499 35.959C16.799 35.959 15.415 37.325 15.415 39.004C15.415 40.683 16.799 42.049 18.499 42.049C20.2 42.049 21.585 40.683 21.585 39.004C21.585 37.325 20.2 35.959 18.499 35.959ZM18.499 32.663C15.71 32.663 13.44 30.422 13.44 27.668C13.44 24.913 15.71 22.673 18.499 22.673C21.289 22.673 23.559 24.913 23.559 27.668C23.559 30.422 21.289 32.663 18.499 32.663ZM18.499 24.622C16.799 24.622 15.415 25.989 15.415 27.668C15.415 29.347 16.799 30.714 18.499 30.714C20.2 30.714 21.585 29.347 21.585 27.668C21.585 25.989 20.2 24.622 18.499 24.622ZM18.499 21.326C15.71 21.326 13.44 19.086 13.44 16.331C13.44 13.577 15.71 11.336 18.499 11.336C21.289 11.336 23.559 13.577 23.559 16.331C23.559 19.086 21.289 21.326 18.499 21.326ZM18.499 13.286C16.799 13.286 15.415 14.652 15.415 16.331C15.415 18.011 16.799 19.376 18.499 19.376C20.2 19.376 21.585 18.011 21.585 16.331C21.585 14.652 20.2 13.286 18.499 13.286ZM18.499 9.99C15.71 9.99 13.44 7.749 13.44 4.995C13.44 2.24 15.71 0 18.499 0C21.289 0 23.559 2.24 23.559 4.995C23.559 7.749 21.289 9.99 18.499 9.99ZM18.499 1.949C16.799 1.949 15.415 3.316 15.415 4.995C15.415 6.674 16.799 8.041 18.499 8.041C20.2 8.041 21.585 6.674 21.585 4.995C21.585 3.316 20.2 1.949 18.499 1.949ZM5.059 32.663C2.269 32.663 0 30.422 0 27.668C0 24.913 2.269 22.673 5.059 22.673C7.849 22.673 10.118 24.913 10.118 27.668C10.118 30.422 7.849 32.663 5.059 32.663ZM5.059 24.622C3.358 24.622 1.974 25.989 1.974 27.668C1.974 29.347 3.358 30.714 5.059 30.714C6.76 30.714 8.143 29.347 8.143 27.668C8.143 25.989 6.76 24.622 5.059 24.622ZM5.059 21.326C2.269 21.326 0 19.086 0 16.331C0 13.577 2.269 11.336 5.059 11.336C7.849 11.336 10.118 13.577 10.118 16.331C10.118 19.086 7.849 21.326 5.059 21.326ZM5.059 13.286C3.358 13.286 1.974 14.652 1.974 16.331C1.974 18.011 3.358 19.376 5.059 19.376C6.76 19.376 8.143 18.011 8.143 16.331C8.143 14.652 6.76 13.286 5.059 13.286ZM5.059 9.99C2.269 9.99 0 7.749 0 4.995C0 2.24 2.269 0 5.059 0C7.849 0 10.118 2.24 10.118 4.995C10.118 7.749 7.849 9.99 5.059 9.99ZM5.059 1.949C3.358 1.949 1.974 3.316 1.974 4.995C1.974 6.674 3.358 8.041 5.059 8.041C6.76 8.041 8.143 6.674 8.143 4.995C8.143 3.316 6.76 1.949 5.059 1.949ZM31.941 22.673C34.73 22.673 36.5 24.913 36.5 27.668C36.5 30.422 34.73 32.663 31.941 32.663C29.151 32.663 26.881 30.422 26.881 27.668C26.881 24.913 29.151 22.673 31.941 22.673ZM31.941 30.714C33.641 30.714 35.025 29.347 35.025 27.668C35.025 25.989 33.641 24.622 31.941 24.622C30.24 24.622 28.857 25.989 28.857 27.668C28.857 29.347 30.24 30.714 31.941 30.714Z" fill="#A3BBC8"/>
</svg>
