<svg width="42" height="41" viewBox="0 0 42 41" fill="none" xmlns="http://www.w3.org/2000/svg">
<path fill-rule="evenodd" clip-rule="evenodd" d="M41.6212 7.823L28.4022 28.27C28.9302 29.381 29.2262 30.627 29.2262 31.94C29.2262 36.613 25.4832 40.415 20.8842 40.415C16.2832 40.415 12.5402 36.613 12.5402 31.94C12.5402 30.627 12.8362 29.381 13.3652 28.269L0.146227 7.823C-0.0857731 7.463 -0.0377731 6.988 0.262227 6.684L6.58023 0.266C6.74823 0.096 6.97523 0 7.21123 0H34.5562C34.7932 0 35.0202 0.096 35.1872 0.266L41.5062 6.684C41.8052 6.988 41.8522 7.463 41.6212 7.823ZM20.8842 38.602C24.4992 38.602 27.4412 35.614 27.4412 31.94C27.4412 28.268 24.4992 25.279 20.8842 25.279C17.2672 25.279 14.3252 28.268 14.3252 31.94C14.3252 35.614 17.2672 38.602 20.8842 38.602ZM20.8972 23.466L30.7462 8.232H11.0202L20.8702 23.466C20.8742 23.466 20.8792 23.466 20.8842 23.466C20.8882 23.466 20.8922 23.466 20.8972 23.466ZM14.4162 26.593C15.5442 25.188 17.1062 24.157 18.8932 23.71L8.88423 8.232H2.54623L14.4162 26.593ZM34.1862 1.813H7.58023L3.04723 6.419H9.36523C9.37123 6.419 9.37823 6.419 9.38423 6.419H32.3832C32.3892 6.419 32.3952 6.419 32.4012 6.419H38.7212L34.1862 1.813ZM32.8822 8.232L22.8742 23.71C24.6612 24.157 26.2232 25.188 27.3512 26.594L39.2212 8.232H32.8822ZM19.7682 28.622H21.1872C21.6792 28.622 22.0792 29.028 22.0792 29.53V35.338C22.0792 35.838 21.6792 36.244 21.1872 36.244C20.6942 36.244 20.2942 35.838 20.2942 35.338V30.436H19.7682C19.2762 30.436 18.8762 30.03 18.8762 29.53C18.8762 29.028 19.2762 28.622 19.7682 28.622Z" fill="#A3BBC8"/>
</svg>
