<svg width="74" height="60" viewBox="0 0 74 60" fill="none" xmlns="http://www.w3.org/2000/svg">
<g clip-path="url(#clip0_172_20)">
<path fill-rule="evenodd" clip-rule="evenodd" d="M56.5 25.625C65.82 25.625 73.375 33.18 73.375 42.5C73.375 51.82 65.82 59.375 56.5 59.375C47.18 59.375 39.625 51.82 39.625 42.5C39.625 33.18 47.18 25.625 56.5 25.625Z" fill="#A3BBC8"/>
<path fill-rule="evenodd" clip-rule="evenodd" d="M60.635 47.856H38.943L39.82 54.856H43.454C44.047 54.856 44.528 55.336 44.528 55.928C44.528 56.52 44.047 56.1 43.454 56.1H20.546C19.953 56.1 19.472 56.52 19.472 55.928C19.472 55.336 19.953 54.856 20.546 54.856H24.179L25.056 47.856H3.365C1.509 47.856 0 46.351 0 44.499V3.357C0 1.506 1.509 0 3.365 0H60.635C62.491 0 63.1 1.506 63.1 3.357V44.499C63.1 46.351 62.491 47.856 60.635 47.856ZM37.656 54.857L36.779 47.857H27.221L26.344 54.857H37.656ZM61.852 3.357C61.852 2.687 61.306 2.142 60.635 2.142H3.365C2.693 2.142 2.148 2.687 2.148 3.357V44.499C2.148 45.169 2.693 45.714 3.365 45.714H60.635C61.306 45.714 61.852 45.169 61.852 44.499V3.357ZM58.344 42.142H13.673C13.08 42.142 12.599 41.663 12.599 41.071C12.599 40.479 13.08 39.1 13.673 39.1H57.271V6.714H54.908C54.315 6.714 53.834 6.234 53.834 5.643C53.834 5.051 54.315 4.571 54.908 4.571H58.344C58.937 4.571 59.418 5.051 59.418 5.643V41.071C59.418 41.663 58.937 42.142 58.344 42.142ZM52.546 20.5V36.5C52.546 37.091 52.065 37.571 51.472 37.571C50.879 37.571 50.398 37.091 50.398 36.5V20.5C50.398 19.908 50.879 19.428 51.472 19.428C52.065 19.428 52.546 19.908 52.546 20.5ZM39.564 34.214V36.5C39.564 37.091 39.084 37.571 38.491 37.571C37.897 37.571 37.417 37.091 37.417 36.5V34.214C37.417 33.622 37.898 33.142 38.491 33.142C39.084 33.142 39.564 33.622 39.564 34.214ZM26.583 27.357V36.5C26.583 37.091 26.102 37.571 25.509 37.571C24.916 37.571 24.435 37.091 24.435 36.5V27.357C24.435 26.765 24.916 26.285 25.509 26.285C26.102 26.285 26.583 26.765 26.583 27.357ZM54.836 13.643C54.836 15.494 53.327 16.1 51.472 16.1C50.969 16.1 50.492 16.888 50.064 16.69L41.46 25.78C41.712 26.25 41.855 26.787 41.855 27.357C41.855 29.208 40.346 30.714 38.491 30.714C36.635 30.714 35.126 29.208 35.126 27.357C35.126 27.172 35.142 26.992 35.17 26.815L27.822 22.934C27.219 23.505 26.405 23.857 25.509 23.857C24.955 23.857 24.432 23.721 23.97 23.483L15.564 31.624C15.774 32.063 15.893 32.553 15.893 33.071C15.893 34.922 14.383 36.428 12.528 36.428C10.673 36.428 9.163 34.922 9.163 33.071C9.163 31.22 10.673 29.714 12.528 29.714C13.082 29.714 13.605 29.85 14.067 30.087L22.473 21.946C22.263 21.508 22.145 21.017 22.145 20.5C22.145 18.649 23.654 17.142 25.509 17.142C27.364 17.142 28.874 18.649 28.874 20.5C28.874 20.684 28.858 20.865 28.829 21.041L36.177 24.923C36.781 24.351 37.595 23.999 38.491 23.999C38.993 23.999 39.47 24.111 39.899 24.309L48.502 15.219C48.251 14.748 48.107 14.212 48.107 13.643C48.107 11.791 49.617 10.285 51.472 10.285C53.327 10.285 54.836 11.791 54.836 13.643ZM12.528 31.857C11.857 31.857 11.311 32.401 11.311 33.071C11.311 33.741 11.857 34.285 12.528 34.285C13.199 34.285 13.745 33.741 13.745 33.071C13.745 32.401 13.199 31.857 12.528 31.857ZM25.509 19.286C24.838 19.286 24.292 19.83 24.292 20.5C24.292 21.169 24.838 21.714 25.509 21.714C26.18 21.714 26.726 21.169 26.726 20.5C26.726 19.83 26.18 19.286 25.509 19.286ZM38.491 26.142C37.819 26.142 37.274 26.687 37.274 27.357C37.274 28.026 37.819 28.571 38.491 28.571C39.162 28.571 39.708 28.026 39.708 27.357C39.708 26.687 39.162 26.142 38.491 26.142ZM51.472 12.428C50.801 12.428 50.255 12.973 50.255 13.643C50.255 14.312 50.801 14.857 51.472 14.857C52.143 14.857 52.689 14.312 52.689 13.643C52.689 12.973 52.143 12.428 51.472 12.428ZM50.327 6.714H6.729V39.1H9.092C9.685 39.1 10.166 40.48 10.166 41.071C10.166 41.663 9.685 42.142 9.092 42.142H5.655C5.062 42.142 4.582 41.663 4.582 41.071V5.643C4.582 5.051 5.062 4.571 5.655 4.571H50.327C50.92 4.571 51.4 5.051 51.4 5.642C51.4 6.234 50.92 6.714 50.327 6.714Z" fill="#243F4D"/>
</g>
<defs>
<clipPath id="clip0_172_20">
<rect width="74" height="60" fill="white"/>
</clipPath>
</defs>
</svg>
