<svg width="37" height="38" viewBox="0 0 37 38" fill="none" xmlns="http://www.w3.org/2000/svg">
<path fill-rule="evenodd" clip-rule="evenodd" d="M35.487 11.753L18.002 29.393C17.892 29.504 17.755 29.584 17.606 29.627C17.606 29.627 11.914 31.22 11.909 31.222C11.881 31.229 11.683 31.251 11.683 31.251H7.057C6.56 31.251 6.156 30.843 6.156 30.34C6.156 29.838 6.56 29.431 7.057 29.431H10.997L12.391 24.365C12.432 24.214 12.512 24.076 12.622 23.965L12.636 23.95H7.057C6.56 23.95 6.156 23.543 6.156 23.04C6.156 22.537 6.56 22.13 7.057 22.13H14.441L19.873 16.65H7.057C6.56 16.65 6.156 16.242 6.156 15.74C6.156 15.236 6.56 14.829 7.057 14.829H21.678L30.107 6.326C31.297 5.124 33.235 5.124 34.425 6.326L35.487 7.397C36.678 8.597 36.678 10.552 35.487 11.753ZM13.716 26.356L12.98 29.033L15.632 28.289L13.716 26.356ZM28.97 10.048L14.536 24.609L17.363 27.462L31.798 12.9L28.97 10.048ZM34.21 8.684L33.148 7.613C32.905 7.367 32.586 7.244 32.266 7.244C31.946 7.244 31.626 7.367 31.382 7.613L30.246 8.76L33.074 11.613L34.21 10.466C34.697 9.974 34.697 9.175 34.21 8.684ZM28.54 5.774C28.042 5.774 27.638 5.366 27.638 4.864V1.991C27.638 1.897 27.562 1.821 27.47 1.821H9.282V7.373C9.282 8.47 8.396 9.363 7.308 9.363H1.805V35.73C1.805 35.823 1.881 35.9 1.973 35.9H27.47C27.562 35.9 27.638 35.823 27.638 35.73V21.828C27.638 21.326 28.042 20.918 28.54 20.918C29.038 20.918 29.442 21.326 29.442 21.828V35.73C29.442 36.828 28.558 37.721 27.469 37.721H1.973C0.885 37.721 0 36.828 0 35.73V8.452C0 8.211 0.095 7.98 0.264 7.809L7.74 0.267C7.91 0.096 8.139 0 8.379 0H27.47C28.558 0 29.442 0.893 29.442 1.991V4.864C29.442 5.366 29.038 5.774 28.54 5.774ZM7.476 3.108L3.081 7.543H7.308C7.4 7.543 7.476 7.466 7.476 7.373V3.108Z" fill="#A3BBC8"/>
</svg>
