<svg width="44" height="40" viewBox="0 0 44 40" fill="none" xmlns="http://www.w3.org/2000/svg">
<path fill-rule="evenodd" clip-rule="evenodd" d="M37.855 21.6226V28.7486C37.855 29.5336 37.462 30.2386 36.804 30.6356C36.467 30.8386 36.095 30.9396 35.723 30.9396C35.365 30.9396 35.006 30.8456 34.677 30.6566C28.717 27.2336 22.27 25.1366 15.492 24.4126L19.651 36.1976C19.886 36.8606 19.791 37.6036 19.396 38.1836C19.001 38.7626 18.354 39.1086 17.665 39.1086H12.807C11.922 39.1086 11.124 38.5346 10.821 37.6806L5.981 23.9576C4.949 23.4896 4.199 22.4866 4.062 21.2936H2.701C1.212 21.2936 0 20.0496 0 18.5196V12.4236C0 10.8946 1.212 9.64961 2.701 9.64961H4.062C4.252 7.99161 5.628 6.70061 7.293 6.70061C7.293 6.70061 13.921 6.67061 13.977 6.66661C21.31 6.10861 28.275 3.96061 34.677 0.283608C35.348 -0.102392 36.143 -0.0933924 36.804 0.304608C37.462 0.701608 37.856 1.40661 37.856 2.19161V9.31761C40.82 9.71161 43.118 12.3196 43.118 15.4696C43.118 18.6206 40.82 21.2286 37.855 21.6226ZM4.038 11.7896H2.701C2.361 11.7896 2.083 12.0746 2.083 12.4236V18.5196C2.083 18.8696 2.361 19.1536 2.701 19.1536H4.038V11.7896ZM12.963 8.84061H7.293C6.647 8.84061 6.122 9.38061 6.122 10.0436V20.8996C6.122 21.3886 6.407 21.8096 6.815 21.9976C6.966 22.0636 7.01 22.0746 7.218 22.0986C7.243 22.1006 12.963 22.1026 12.963 22.1026V8.84061ZM13.215 24.2426H8.296L12.78 36.9506C12.783 36.9606 12.795 36.9686 12.807 36.9686H17.665C17.674 36.9686 17.68 36.9686 17.689 36.9556C17.699 36.9426 17.696 36.9366 17.693 36.9276L13.215 24.2426ZM35.772 2.19161C35.772 2.17561 35.772 2.16361 35.75 2.15061C35.724 2.13461 35.707 2.14361 35.694 2.15061C29.291 5.82861 22.349 8.03561 15.046 8.72161V22.2196C22.349 22.9036 29.291 25.1116 35.694 28.7896C35.707 28.7966 35.723 28.8056 35.75 28.7896C35.772 28.7766 35.772 28.7636 35.772 28.7486V2.19161ZM37.856 11.4826V19.4566C39.666 19.0836 41.035 17.4376 41.035 15.4696C41.035 13.5016 39.666 11.8556 37.856 11.4826Z" fill="#A3BBC8"/>
</svg>
