<svg width="79" height="64" viewBox="0 0 79 64" fill="none" xmlns="http://www.w3.org/2000/svg">
<g clip-path="url(#clip0_172_28)">
<path fill-rule="evenodd" clip-rule="evenodd" d="M61.5 29.625C70.82 29.625 78.375 37.18 78.375 46.5C78.375 55.82 70.82 63.375 61.5 63.375C52.18 63.375 44.625 55.82 44.625 46.5C44.625 37.18 52.18 29.625 61.5 29.625Z" fill="#A3BBC8"/>
<path fill-rule="evenodd" clip-rule="evenodd" d="M58.493 37.654C58.308 37.654 58.122 37.608 57.951 37.51L55.946 36.365C55.427 36.069 55.25 35.412 55.549 34.898C55.849 34.385 56.512 34.209 57.031 34.505L59.036 35.651C59.555 35.947 59.733 36.604 59.433 37.117C59.232 37.462 58.868 37.654 58.493 37.654ZM57.032 18.039C56.861 18.137 56.674 18.183 56.49 18.183C56.115 18.183 55.75 17.991 55.549 17.646C55.25 17.132 55.427 16.476 55.946 16.179L57.951 15.034C58.47 14.737 59.134 14.913 59.433 15.427C59.733 15.94 59.555 16.597 59.036 16.894L57.032 18.039ZM62.37 26.272C62.37 26.865 61.884 27.346 61.285 27.346H58.97C58.371 27.346 57.885 26.865 57.885 26.272C57.885 25.679 58.371 25.198 58.97 25.198H61.285C61.884 25.198 62.37 25.679 62.37 26.272ZM58.959 45.109L61.072 44.691C61.66 44.575 62.231 44.952 62.349 45.533C62.467 46.115 62.086 46.68 61.498 46.797L55.711 47.942C55.64 47.956 55.569 47.963 55.498 47.963C55.213 47.963 54.936 47.852 54.73 47.649C54.474 47.395 54.363 47.031 54.434 46.679L55.591 40.952C55.709 40.37 56.28 39.993 56.868 40.109C57.456 40.225 57.837 40.791 57.719 41.373L57.236 43.766C62.081 39.217 64.83 32.935 64.83 26.272C64.83 12.969 53.893 2.14702 40.451 2.14702C32.528 2.14702 25.071 5.98002 20.503 12.399C20.158 12.884 19.481 13 18.991 12.659C18.501 12.317 18.383 11.647 18.729 11.163C23.702 4.17302 31.823 -0.000976562 40.45 -0.000976562C55.09 -0.000976562 66.1 11.786 66.1 26.272C66.1 33.423 64.094 40.173 58.959 45.109ZM24.411 18.183C24.227 18.183 24.04 18.137 23.869 18.039L21.865 16.893C21.346 16.597 21.168 15.94 21.468 15.427C21.767 14.913 22.431 14.737 22.95 15.034L24.955 16.179C25.474 16.475 25.651 17.132 25.352 17.646C25.151 17.99 24.786 18.183 24.411 18.183ZM24.955 36.365L22.95 37.511C22.779 37.609 22.592 37.655 22.408 37.655C22.033 37.655 21.669 37.462 21.468 37.118C21.168 36.604 21.346 35.947 21.865 35.651L23.869 34.505C24.388 34.209 25.052 34.385 25.352 34.898C25.651 35.412 25.474 36.069 24.955 36.365ZM31.733 41.213C32.252 41.51 32.43 42.166 32.13 42.68L30.973 44.664C30.772 45.008 30.407 45.201 30.032 45.201C29.848 45.201 29.661 45.154 29.491 45.057C28.972 44.76 28.794 44.104 29.093 43.59L30.251 41.606C30.551 41.093 31.214 40.917 31.733 41.213ZM31.192 11.475C30.817 11.475 30.452 11.283 30.251 10.938L29.094 8.95402C28.794 8.44102 28.972 7.78402 29.491 7.48802C30.01 7.19102 30.673 7.36702 30.973 7.88002L32.13 9.86402C32.43 10.378 32.252 11.035 31.733 11.331C31.562 11.429 31.376 11.475 31.192 11.475ZM39.221 22.509C39.221 26.136 36.262 27.734 33.884 29.018C31.957 30.058 30.621 30.84 30.149 32.071H38.136C38.735 32.071 39.221 32.551 39.221 33.145C39.221 33.737 38.735 34.218 38.135 34.218H28.876C28.276 34.218 27.79 33.737 27.79 33.145C27.79 29.862 30.475 28.412 32.844 27.133C35.461 25.719 37.05 24.703 37.05 22.509C37.05 20.755 35.46 19.328 33.506 19.328C31.551 19.328 29.961 20.755 29.961 22.509C29.961 23.102 29.475 23.583 28.876 23.583C28.276 23.583 27.791 23.102 27.791 22.509C27.791 19.571 30.354 17.18 33.506 17.18C36.657 17.18 39.221 19.571 39.221 22.509ZM50.65 41.606L51.807 43.59C52.107 44.104 51.929 44.76 51.41 45.057C51.239 45.155 51.053 45.201 50.869 45.201C50.494 45.201 50.129 45.008 49.928 44.664L48.771 42.68C48.471 42.166 48.649 41.51 49.168 41.213C49.687 40.917 50.35 41.093 50.65 41.606ZM39.365 7.94602V5.65502C39.365 5.06202 39.851 4.58102 40.45 4.58102C41.05 4.58102 41.535 5.06202 41.536 5.65502V7.94602C41.536 8.53902 41.05 9.02002 40.45 9.02002C39.851 9.02002 39.365 8.53902 39.365 7.94602ZM49.709 11.475C49.525 11.475 49.339 11.429 49.168 11.331C48.649 11.035 48.471 10.378 48.771 9.86402L49.928 7.88002C50.228 7.36702 50.891 7.19102 51.41 7.48702C51.929 7.78402 52.107 8.44102 51.808 8.95402L50.65 10.938C50.449 11.282 50.084 11.475 49.709 11.475ZM53.11 28.563C53.11 29.156 52.624 29.637 52.025 29.637H50.795V33.145C50.795 33.738 50.309 34.218 49.71 34.218C49.111 34.218 48.625 33.737 48.625 33.145V29.637H41.608C41.279 29.637 40.967 29.489 40.761 29.235C40.555 28.981 40.477 28.648 40.548 28.33L42.863 18.021C42.993 17.443 43.573 17.077 44.158 17.206C44.743 17.334 45.112 17.909 44.982 18.487L42.961 27.489H48.625V18.254C48.625 17.661 49.111 17.18 49.71 17.18C50.31 17.18 50.795 17.661 50.795 18.254V27.489H52.025C52.624 27.489 53.11 27.97 53.11 28.563ZM19.692 26.604L15.622 30.63C14.789 31.456 14.685 32.777 15.381 33.703C17.47 36.485 19.851 39.204 22.459 41.785C25.067 44.366 27.815 46.722 30.626 48.789C31.563 49.478 32.897 49.375 33.731 48.55L37.8 44.523C39.239 43.099 41.483 42.794 43.257 43.782L54.845 50.232C56.059 50.908 56.865 52.085 57.057 53.461C57.257 54.904 56.763 56.333 55.703 57.382L51.411 61.629C49.815 63.208 47.555 63.1 44.778 63.1C42.278 63.1 39.359 63.359 36.126 62.073C29.598 59.477 22.455 54.537 16.014 48.163C9.57301 41.789 4.58101 34.721 1.95701 28.26C-0.784994 21.507 -0.625995 16.135 2.40601 13.135L6.69801 8.88802C7.75801 7.83902 9.20201 7.35002 10.66 7.54902C12.051 7.73802 13.24 8.53502 13.923 9.73702L20.441 21.204C21.439 22.959 21.131 25.18 19.692 26.604ZM18.55 22.257L12.032 10.79C11.685 10.179 11.077 9.77302 10.364 9.67702C10.252 9.66102 10.14 9.65402 10.028 9.65402C9.36601 9.65402 8.72601 9.91902 8.23301 10.407L7.48301 11.148L8.82701 13.588C9.11401 14.108 8.92001 14.76 8.39401 15.045C8.22901 15.134 8.05101 15.176 7.87501 15.176C7.49101 15.176 7.11901 14.973 6.92201 14.616L5.88301 12.731L3.94101 14.653C1.59701 16.973 1.60801 21.641 3.97101 27.46C6.48801 33.658 11.31 40.471 17.548 46.645C23.787 52.818 30.672 57.59 36.935 60.08C42.815 62.419 47.532 62.43 49.876 60.11L51.819 58.188L42.5 53.158C41.974 52.874 41.78 52.222 42.067 51.701C42.354 51.181 43.013 50.989 43.539 51.273L53.418 56.605L54.168 55.863C54.744 55.293 55.013 54.524 54.906 53.753C54.808 53.048 54.398 52.447 53.781 52.103L42.193 45.653C41.264 45.136 40.088 45.296 39.335 46.042L37.398 47.958L39.302 48.986C39.828 49.269 40.022 49.922 39.735 50.442C39.538 50.8 39.166 51.002 38.782 51.002C38.606 51.002 38.428 50.96 38.263 50.871L35.799 49.541L35.266 50.069C33.676 51.641 31.126 51.832 29.332 50.513C26.436 48.384 23.607 45.958 20.925 43.303C18.242 40.649 15.791 37.85 13.639 34.984C12.306 33.209 12.499 30.684 14.088 29.112L14.621 28.584L9.23401 18.811C8.94701 18.29 9.14101 17.638 9.66701 17.354C10.193 17.07 10.853 17.262 11.139 17.783L16.221 27.002L18.157 25.085C18.911 24.339 19.072 23.176 18.55 22.257Z" fill="#243F4D"/>
</g>
<defs>
<clipPath id="clip0_172_28">
<rect width="79" height="64" fill="white"/>
</clipPath>
</defs>
</svg>
