<svg width="55" height="37" viewBox="0 0 55 37" fill="none" xmlns="http://www.w3.org/2000/svg">
<g clip-path="url(#clip0_58_5)">
<path fill-rule="evenodd" clip-rule="evenodd" d="M46.781 17.812V19.804C46.781 20.238 46.429 20.59 45.995 20.59C45.562 20.59 45.21 20.238 45.21 19.804V17.812C45.21 17.377 45.562 17.025 45.995 17.025C46.429 17.025 46.781 17.377 46.781 17.812ZM36.757 14.09V6.69999C36.757 6.26599 37.108 5.91399 37.542 5.91399H41.843C44.566 5.91399 46.781 8.12999 46.781 10.855V14.09C46.781 14.525 46.429 14.877 45.995 14.877H37.542C37.108 14.877 36.757 14.525 36.757 14.09ZM38.328 13.304H45.21V10.855C45.21 8.99799 43.7 7.48699 41.843 7.48699H38.328V13.304ZM49.137 25.727H46.355C45.977 28.1 43.918 29.919 41.443 29.919C38.967 29.919 36.909 28.1 36.531 25.727H25.279C24.902 28.1 22.843 29.919 20.368 29.919C17.892 29.919 15.834 28.1 15.456 25.727H13.037C12.603 25.727 12.252 25.374 12.252 24.94V1.35399C12.252 0.919993 12.603 0.567993 13.037 0.567993H19.083C19.517 0.567993 19.869 0.919993 19.869 1.35399C19.869 1.78799 19.517 2.13999 19.083 2.13999H13.822V24.154H15.456C15.834 21.78 17.892 19.961 20.368 19.961C22.843 19.961 24.902 21.78 25.279 24.154H33.615V23.029C33.615 22.595 33.967 22.243 34.4 22.243C34.834 22.243 35.186 22.595 35.186 23.029V24.154H36.531C36.909 21.78 38.967 19.961 41.443 19.961C43.919 19.961 45.977 21.78 46.355 24.154H48.352V10.855C48.352 7.26399 45.432 4.34199 41.843 4.34199H35.186V19.36C35.186 19.794 34.834 20.146 34.4 20.146C33.967 20.146 33.615 19.794 33.615 19.36V2.13999H22.225C21.791 2.13999 21.44 1.78799 21.44 1.35399C21.44 0.919993 21.791 0.567993 22.225 0.567993H34.4C34.834 0.567993 35.186 0.919993 35.186 1.35399V2.76899H41.843C46.298 2.76899 49.922 6.39699 49.922 10.855V24.94C49.922 25.374 49.571 25.727 49.137 25.727ZM20.368 21.534C18.491 21.534 16.964 23.062 16.964 24.94C16.964 26.819 18.491 28.347 20.368 28.347C22.244 28.347 23.771 26.819 23.771 24.94C23.771 23.062 22.244 21.534 20.368 21.534ZM41.443 21.534C39.567 21.534 38.04 23.061 38.04 24.94C38.04 26.818 39.567 28.347 41.443 28.347C43.32 28.347 44.847 26.819 44.847 24.94C44.847 23.062 43.32 21.534 41.443 21.534ZM41.443 26.967C40.327 26.967 39.418 26.058 39.418 24.94C39.418 23.823 40.327 22.914 41.443 22.914C42.56 22.914 43.468 23.823 43.468 24.94C43.468 26.058 42.56 26.967 41.443 26.967ZM41.443 24.486C41.193 24.486 40.989 24.689 40.989 24.94C40.989 25.191 41.193 25.395 41.443 25.395C41.693 25.395 41.897 25.191 41.897 24.94C41.897 24.689 41.693 24.486 41.443 24.486ZM20.368 26.967C19.251 26.967 18.343 26.058 18.343 24.94C18.343 23.823 19.251 22.914 20.368 22.914C21.484 22.914 22.392 23.823 22.392 24.94C22.392 26.058 21.484 26.967 20.368 26.967ZM20.368 24.486C20.117 24.486 19.913 24.689 19.913 24.94C19.913 25.191 20.117 25.395 20.368 25.395C20.618 25.395 20.822 25.191 20.822 24.94C20.822 24.689 20.618 24.486 20.368 24.486ZM10.34 17.912H4.73797C4.30397 17.912 3.95197 17.56 3.95197 17.126C3.95197 16.692 4.30397 16.34 4.73797 16.34H10.34C10.774 16.34 11.125 16.692 11.125 17.126C11.125 17.56 10.774 17.912 10.34 17.912ZM9.81597 6.90599H3.68997C3.25697 6.90599 2.90497 6.55399 2.90497 6.11899C2.90497 5.68599 3.25697 5.33399 3.68997 5.33399H9.81597C10.25 5.33399 10.602 5.68599 10.602 6.11899C10.602 6.55399 10.25 6.90599 9.81597 6.90599ZM9.03097 12.409C9.03097 12.843 8.67897 13.195 8.24597 13.195H1.59597C1.16197 13.195 0.810974 12.843 0.810974 12.409C0.810974 11.975 1.16197 11.623 1.59597 11.623H8.24597C8.67897 11.623 9.03097 11.975 9.03097 12.409ZM1.59597 22.629H4.98297C5.41697 22.629 5.76897 22.981 5.76897 23.415C5.76897 23.849 5.41697 24.202 4.98297 24.202H1.59597C1.16197 24.202 0.810974 23.849 0.810974 23.415C0.810974 22.981 1.16197 22.629 1.59597 22.629ZM7.60197 22.629H8.24597C8.67897 22.629 9.03097 22.981 9.03097 23.415C9.03097 23.849 8.67897 24.202 8.24597 24.202H7.60197C7.16797 24.202 6.81597 23.849 6.81597 23.415C6.81597 22.981 7.16797 22.629 7.60197 22.629Z" fill="#A3BBC8"/>
<path opacity="0.341" fill-rule="evenodd" clip-rule="evenodd" d="M44.75 17.406C50.169 17.406 54.562 21.792 54.562 27.203C54.562 32.614 50.169 36.1 44.75 36.1C39.331 36.1 34.937 32.614 34.937 27.203C34.937 21.792 39.331 17.406 44.75 17.406Z" fill="#A3BBC8"/>
</g>
<defs>
<clipPath id="clip0_58_5">
<rect width="55" height="37" fill="white"/>
</clipPath>
</defs>
</svg>
