<svg width="52" height="54" viewBox="0 0 52 54" fill="none" xmlns="http://www.w3.org/2000/svg">
<g clip-path="url(#clip0_58_2)">
<path opacity="0.341" fill-rule="evenodd" clip-rule="evenodd" d="M41.984 33.594C47.395 33.594 51.781 37.987 51.781 43.406C51.781 48.825 47.395 53.219 41.984 53.219C36.574 53.219 32.187 48.825 32.187 43.406C32.187 37.987 36.574 33.594 41.984 33.594Z" fill="#A3BBC8"/>
<path fill-rule="evenodd" clip-rule="evenodd" d="M25.463 49.206C20.103 49.206 15.01 47.509 10.735 44.3C10.321 43.99 10.237 43.401 10.548 42.988C10.859 42.573 11.447 42.49 11.86 42.801C15.808 45.764 20.512 47.33 25.463 47.33C37.969 47.33 48.144 37.156 48.144 24.65C48.144 20.396 46.96 16.251 44.72 12.662C44.446 12.222 44.58 11.644 45.02 11.369C45.459 11.096 46.037 11.23 46.312 11.669C48.737 15.557 50.019 20.046 50.019 24.65C50.019 38.19 39.003 49.206 25.463 49.206ZM34.783 35.484C34.265 35.484 33.845 35.063 33.845 34.546V29.046H26.907C26.569 29.046 26.258 28.864 26.091 28.571C25.925 28.277 25.929 27.917 26.102 27.627L33.977 14.439C34.243 13.995 34.818 13.849 35.263 14.115C35.554 14.288 35.716 14.595 35.719 14.911C35.719 14.914 35.72 14.916 35.72 14.919V22.528C35.72 23.046 35.3 23.465 34.783 23.465C34.265 23.465 33.845 23.046 33.845 22.528V18.318L28.559 27.17H33.845V25.654C33.845 25.136 34.265 24.716 34.783 24.716C35.3 24.716 35.72 25.136 35.72 25.654V27.17H38.321C38.839 27.17 39.259 27.59 39.259 28.108C39.259 28.625 38.839 29.046 38.321 29.046H35.72V34.546C35.72 35.063 35.3 35.484 34.783 35.484ZM18.375 15.857C16.186 15.857 14.406 17.637 14.406 19.826C14.406 20.344 13.986 20.764 13.468 20.764C12.95 20.764 12.531 20.344 12.531 19.826C12.531 16.604 15.152 13.982 18.375 13.982C21.597 13.982 24.219 16.604 24.219 19.826C24.219 23.241 22.889 26.451 20.475 28.865L15.732 33.608H23.282C23.799 33.608 24.219 34.028 24.219 34.546C24.219 35.063 23.799 35.484 23.281 35.484H13.468C13.089 35.484 12.747 35.255 12.602 34.905C12.457 34.554 12.537 34.151 12.805 33.883L19.149 27.54C21.209 25.48 22.344 22.74 22.344 19.826C22.344 17.637 20.563 15.857 18.375 15.857ZM42.832 9.55799L38.772 9.65399C38.765 9.65399 38.757 9.65399 38.749 9.65399C38.242 9.65399 37.824 9.24999 37.812 8.73999C37.8 8.22199 38.21 7.79199 38.727 7.77999L40.57 7.73699C36.435 4.04999 31.041 1.96899 25.463 1.96899C12.957 1.96899 2.78198 12.144 2.78198 24.65C2.78198 30.79 5.19698 36.541 9.58098 40.843C9.95098 41.205 9.95698 41.799 9.59398 42.168C9.41098 42.356 9.16798 42.449 8.92498 42.449C8.68798 42.449 8.45098 42.36 8.26898 42.181C3.52198 37.525 0.906982 31.298 0.906982 24.65C0.906982 11.11 11.923 0.0939941 25.463 0.0939941C28.948 0.0939941 32.316 0.808994 35.473 2.21999C37.803 3.26099 39.928 4.64099 41.818 6.33199L41.776 4.58299C41.764 4.06499 42.174 3.63599 42.691 3.62299C43.208 3.61199 43.638 4.01999 43.651 4.53799L43.747 8.59899C43.76 9.11599 43.35 9.54599 42.832 9.55799Z" fill="#A3BBC8"/>
</g>
<defs>
<clipPath id="clip0_58_2">
<rect width="52" height="54" fill="white"/>
</clipPath>
</defs>
</svg>
