<svg width="61" height="64" viewBox="0 0 61 64" fill="none" xmlns="http://www.w3.org/2000/svg">
<g clip-path="url(#clip0_172_32)">
<path fill-rule="evenodd" clip-rule="evenodd" d="M43.5 29.625C52.82 29.625 60.375 37.18 60.375 46.5C60.375 55.82 52.82 63.375 43.5 63.375C34.18 63.375 26.625 55.82 26.625 46.5C26.625 37.18 34.18 29.625 43.5 29.625Z" fill="#A3BBC8"/>
<path fill-rule="evenodd" clip-rule="evenodd" d="M47.581 22.502C48.247 23.604 48.247 24.974 47.582 26.077L46.268 28.251C46.095 28.538 46.028 28.878 46.08 29.209L46.471 31.722C46.67 33.001 46.15 34.269 45.112 35.031L43.076 36.526C42.806 36.724 42.615 37.012 42.537 37.339L41.944 39.812C41.643 41.068 40.682 42.038 39.438 42.341L38.454 42.582L45.381 58.182C45.528 58.513 45.488 58.899 45.274 59.191C45.061 59.484 44.709 59.638 44.352 59.595L38.78 58.923L35.571 63.568C35.383 63.84 35.077 63.1 34.752 63.1C34.721 63.1 34.69 63.998 34.659 63.995C34.3 63.961 33.988 63.735 33.841 63.404L26.761 47.46L25.832 48.032C25.286 48.368 24.674 48.535 24.062 48.535C23.449 48.535 22.837 48.368 22.291 48.032L21.395 47.48L14.324 63.404C14.176 63.735 13.864 63.961 13.506 63.995C13.475 63.998 13.443 63.1 13.412 63.1C13.088 63.1 12.781 63.84 12.594 63.568L9.38398 58.923L3.81298 59.595C3.45598 59.638 3.10298 59.484 2.88998 59.191C2.67698 58.899 2.63598 58.513 2.78298 58.182L9.70698 42.591L8.68398 42.341C7.43998 42.037 6.47998 41.067 6.17898 39.811L5.58598 37.338C5.50798 37.011 5.31598 36.723 5.04698 36.525L3.01098 35.031C1.97398 34.269 1.45298 32.1 1.65198 31.72L2.04398 29.209C2.09598 28.878 2.02898 28.538 1.85598 28.251L0.54198 26.077C-0.12402 24.974 -0.12402 23.604 0.54198 22.502L1.85598 20.327C2.02898 20.041 2.09598 19.701 2.04398 19.369L1.65298 16.857C1.45298 15.577 1.97398 14.309 3.01198 13.547L5.04798 12.052C5.31698 11.855 5.50798 11.566 5.58698 11.24L6.17998 8.76598C6.48098 7.50998 7.44098 6.54098 8.68498 6.23698L11.135 5.63798C11.459 5.55898 11.745 5.36598 11.941 5.09498L13.421 3.03898C14.176 1.99198 15.433 1.46598 16.7 1.66798L19.188 2.06298C19.517 2.11498 19.854 2.04698 20.137 1.87298L22.291 0.546978C23.383 -0.125022 24.74 -0.126022 25.832 0.546978L27.987 1.87298C28.27 2.04798 28.608 2.11498 28.936 2.06298L31.424 1.66798C32.692 1.46598 33.948 1.99298 34.703 3.03998L36.184 5.09498C36.38 5.36698 36.666 5.55998 36.989 5.63898L39.439 6.23798C40.684 6.54198 41.644 7.51098 41.945 8.76698L42.538 11.241C42.616 11.567 42.807 11.855 43.076 12.053L45.112 13.548C46.15 14.31 46.671 15.578 46.471 16.858L46.08 19.369C46.028 19.701 46.095 20.041 46.268 20.327L47.581 22.502ZM34.942 60.955L37.485 57.274C37.696 56.968 38.056 56.805 38.423 56.849L42.838 57.382L36.519 43.153C36.391 43.243 36.276 43.354 36.183 43.484L34.702 45.539C34.57 45.723 34.421 45.889 34.26 46.04L37.593 53.546C37.819 54.053 37.594 54.65 37.091 54.878C36.958 54.938 36.82 54.966 36.683 54.966C36.302 54.966 35.938 54.744 35.771 54.37L32.46 46.914C32.122 46.965 31.773 46.966 31.423 46.911L28.936 46.516C28.8 46.494 28.663 46.494 28.528 46.512L34.942 60.955ZM5.32698 57.382L9.74198 56.849C10.108 56.805 10.468 56.968 10.679 57.274L13.223 60.955L19.634 46.518C19.487 46.493 19.336 46.491 19.187 46.515L16.699 46.91C16.362 46.964 16.027 46.965 15.702 46.92L12.393 54.37C12.227 54.744 11.863 54.966 11.481 54.966C11.345 54.966 11.206 54.937 11.074 54.877C10.57 54.65 10.345 54.053 10.571 53.546L13.891 46.068C13.719 45.911 13.561 45.734 13.42 45.538L11.939 43.483C11.854 43.364 11.75 43.262 11.635 43.176L5.32698 57.382ZM45.876 23.551L44.563 21.377C44.144 20.683 43.982 19.858 44.107 19.056L44.499 16.545C44.581 16.016 44.366 15.492 43.938 15.178L41.902 13.683C41.25 13.205 40.786 12.505 40.597 11.714L40.004 9.24098C39.88 8.72198 39.483 8.32198 38.97 8.19698L36.52 7.59798C35.736 7.40698 35.044 6.93898 34.569 6.28098L33.088 4.22498C32.777 3.79298 32.258 3.57598 31.735 3.65898L29.246 4.05398C28.451 4.18098 27.634 4.01698 26.947 3.59398L24.792 2.26798C24.342 1.98998 23.782 1.98998 23.331 2.26798L21.177 3.59398C20.489 4.01698 19.673 4.17998 18.877 4.05398L16.39 3.65898C15.866 3.57498 15.348 3.79298 15.036 4.22498L13.555 6.27998C13.081 6.93798 12.389 7.40598 11.605 7.59798L9.15498 8.19598C8.64098 8.32198 8.24498 8.72098 8.11998 9.23998L7.52698 11.713C7.33798 12.504 6.87398 13.203 6.22298 13.682L4.18598 15.177C3.75798 15.492 3.54298 16.015 3.62498 16.544L4.01698 19.056C4.14198 19.858 3.97998 20.683 3.56098 21.376L2.24698 23.551C1.97198 24.006 1.97198 24.572 2.24698 25.027L3.56098 27.201C3.97998 27.895 4.14098 28.72 4.01598 29.522L3.62498 32.034C3.54298 32.562 3.75698 33.086 4.18598 33.4L6.22098 34.895C6.87298 35.374 7.33698 36.073 7.52598 36.864L8.11898 39.337C8.24398 39.856 8.63998 40.256 9.15398 40.381L11.604 40.98C12.387 41.172 13.08 41.64 13.554 42.297L15.035 44.353C15.347 44.785 15.865 45.002 16.389 44.919L18.877 44.524C19.052 44.496 19.229 44.482 19.405 44.482C20.026 44.482 20.641 44.654 21.176 44.984L23.331 46.31C23.781 46.588 24.342 46.588 24.793 46.31L26.947 44.984C27.634 44.561 28.451 44.398 29.246 44.524L31.734 44.919C32.257 45.003 32.776 44.786 33.087 44.353L34.568 42.298C35.042 41.64 35.735 41.172 36.519 40.981L38.969 40.382C39.482 40.257 39.879 39.857 40.003 39.338L40.596 36.865C40.786 36.074 41.249 35.375 41.901 34.896L43.937 33.401C44.366 33.086 44.581 32.563 44.498 32.035L44.107 29.523C43.982 28.72 44.144 27.896 44.563 27.202L45.876 25.027C46.151 24.572 46.151 24.006 45.876 23.551ZM36.77 37.145C33.274 40.675 28.645 42.475 23.999 42.475C20.112 42.475 16.212 41.215 12.952 38.655C12.517 38.312 12.439 37.679 12.778 37.24C13.116 36.801 13.743 36.722 14.179 37.064C20.542 42.063 29.647 41.485 35.358 35.72C40.271 30.761 41.469 23.226 38.34 16.97C38.091 16.473 38.289 15.867 38.781 15.617C39.273 15.366 39.874 15.565 40.122 16.062C43.641 23.096 42.294 31.569 36.77 37.145ZM36.795 13.898C36.519 13.898 36.244 13.783 36.046 13.558C35.826 13.306 35.594 13.058 35.358 12.819C35.122 12.581 34.876 12.347 34.626 12.125C34.213 11.756 34.174 11.119 34.54 10.702C34.905 10.285 35.536 10.245 35.949 10.614C36.229 10.864 36.505 11.126 36.77 11.394C37.035 11.662 37.295 11.94 37.543 12.223C37.908 12.64 37.869 13.277 37.456 13.646C37.266 13.815 37.03 13.898 36.795 13.898ZM35.745 21.153C35.965 21.837 35.777 22.565 35.254 23.053L30.813 27.199L31.992 33.19C32.13 33.895 31.859 34.595 31.282 35.018C30.706 35.441 29.962 35.485 29.341 35.134L24.062 32.151L18.782 35.134C18.504 35.291 18.201 35.369 17.899 35.369C17.528 35.369 17.159 35.251 16.841 35.018C16.264 34.595 15.993 33.895 16.131 33.19L17.31 27.199L12.869 23.053C12.346 22.565 12.158 21.837 12.378 21.153C12.598 20.47 13.174 19.992 13.881 19.907L19.889 19.188L22.423 13.642C22.722 12.99 23.349 12.584 24.062 12.584C24.774 12.584 25.402 12.99 25.7 13.642L28.234 19.188L34.242 19.907C34.949 19.992 35.525 20.47 35.745 21.153ZM27.444 21.123C27.099 21.082 26.8 20.863 26.655 20.545L24.062 14.87L21.469 20.545C21.323 20.863 21.024 21.082 20.679 21.123L14.531 21.859L19.076 26.102C19.331 26.341 19.446 26.695 19.378 27.039L18.171 33.169L23.574 30.116C23.725 30.031 23.893 29.988 24.062 29.988C24.23 29.988 24.398 30.031 24.549 30.116L29.952 33.169L28.745 27.039C28.678 26.696 28.792 26.341 29.047 26.102L33.592 21.859L27.444 21.123ZM31.249 9.81098C25.051 6.64998 17.586 7.85898 12.672 12.819C6.96098 18.584 6.38898 27.776 11.341 34.199C11.68 34.638 11.601 35.272 11.166 35.614C10.984 35.757 10.768 35.826 10.554 35.826C10.256 35.826 9.96198 35.693 9.76498 35.437C4.19598 28.213 4.83798 17.876 11.26 11.394C16.785 5.81598 25.18 4.45698 32.149 8.01198C32.642 8.26298 32.839 8.86898 32.59 9.36598C32.342 9.86298 31.741 10.062 31.249 9.81098Z" fill="#243F4D"/>
</g>
<defs>
<clipPath id="clip0_172_32">
<rect width="61" height="64" fill="white"/>
</clipPath>
</defs>
</svg>
