<svg width="73" height="52" viewBox="0 0 73 52" fill="none" xmlns="http://www.w3.org/2000/svg">
<g clip-path="url(#clip0_172_24)">
<path fill-rule="evenodd" clip-rule="evenodd" d="M55.5 17.625C64.82 17.625 72.375 25.18 72.375 34.5C72.375 43.82 64.82 51.375 55.5 51.375C46.18 51.375 38.625 43.82 38.625 34.5C38.625 25.18 46.18 17.625 55.5 17.625Z" fill="#A3BBC8"/>
<path fill-rule="evenodd" clip-rule="evenodd" d="M41.62 27.459C42.173 27.459 42.622 27.902 42.622 28.449C42.622 28.996 42.173 29.439 41.62 29.439H26.655C26.102 29.439 25.653 28.996 25.653 28.449C25.653 27.902 26.102 27.459 26.655 27.459H41.62ZM24.518 20.99C24.261 20.99 24.005 20.893 23.809 20.7L18.465 15.419C18.073 15.033 18.073 14.406 18.465 14.019C18.856 13.633 19.49 13.633 19.882 14.019L24.518 18.599L33.429 9.795C33.82 9.408 34.455 9.408 34.846 9.795C35.238 10.181 35.238 10.808 34.846 11.195L25.226 20.7C25.031 20.893 24.774 20.99 24.518 20.99ZM62.998 33.663H59.722C59.723 33.685 59.724 33.707 59.724 33.729C59.724 37.187 56.877 39.999 53.378 39.999C49.878 39.999 47.031 37.187 47.031 33.729C47.031 33.707 47.033 33.685 47.033 33.663H24.449C24.449 33.685 24.451 33.707 24.451 33.729C24.451 37.187 21.604 39.999 18.104 39.999C14.605 39.999 11.758 37.187 11.758 33.729C11.758 33.707 11.759 33.685 11.76 33.663H6.347C5.205 33.663 4.276 32.745 4.276 31.617V29.438H1.002C0.449 29.438 0 28.995 0 28.448C0 27.901 0.449 27.458 1.002 27.458H10.622C11.176 27.458 11.624 27.901 11.624 28.448C11.624 28.995 11.175 29.438 10.622 29.438H6.28V31.617C6.28 31.653 6.31 31.683 6.346 31.683H12.107C12.967 29.227 15.33 27.458 18.104 27.458C20.879 27.458 23.241 29.227 24.102 31.683H44.893V24.224C44.893 23.677 45.342 23.234 45.895 23.234C46.449 23.234 46.897 23.677 46.897 24.224V31.683H47.38C48.24 29.227 50.603 27.459 53.378 27.459C56.152 27.459 58.515 29.227 59.375 31.683H61.996V27.327H60.86C59.128 27.327 57.72 25.935 57.72 24.224V22.112C57.72 21.565 58.169 21.122 58.722 21.122H61.838C61.414 19.822 60.179 18.879 58.724 18.878H58.721H58.719H46.898V20C46.898 20.547 46.449 20.99 45.895 20.99C45.342 20.99 44.893 20.547 44.893 20V2.046C44.893 2.009 44.863 1.98 44.827 1.98H6.346C6.31 1.98 6.28 2.009 6.28 2.046V19.1C6.28 20.547 5.831 20.99 5.278 20.99C4.724 20.99 4.275 20.547 4.275 19.1V2.046C4.275 0.918 5.204 0 6.346 0H44.827C45.969 0 46.898 0.918 46.898 2.046V4.224H54.447C56.767 4.224 58.655 6.09 58.655 8.383V9.439C58.655 9.915 58.315 10.312 57.862 10.407L59.52 16.957C62.053 17.338 63.1 19.504 63.1 22.112V32.673C63.1 33.22 63.551 33.663 62.998 33.663ZM18.104 29.439C15.71 29.439 13.762 31.363 13.762 33.729C13.762 36.095 15.71 38.02 18.104 38.02C20.499 38.02 22.447 36.095 22.447 33.729C22.447 31.363 20.499 29.439 18.104 29.439ZM53.378 29.439C50.983 29.439 49.035 31.363 49.035 33.729C49.035 36.095 50.983 38.02 53.378 38.02C55.772 38.02 57.72 36.095 57.72 33.729C57.72 31.363 55.772 29.439 53.378 29.439ZM56.651 8.383C56.651 7.182 55.662 6.204 54.447 6.204H46.898V8.449H56.651V8.383ZM55.802 10.429H46.898V16.898H57.439L55.802 10.429ZM61.996 23.102H59.724V24.224C59.724 24.843 60.234 25.346 60.86 25.346H61.996V23.102ZM53.378 35.776C52.236 35.776 51.307 34.858 51.307 33.729C51.307 32.601 52.236 31.683 53.378 31.683C54.52 31.683 55.449 32.601 55.449 33.729C55.449 34.858 54.52 35.776 53.378 35.776ZM18.104 35.776C16.962 35.776 16.033 34.858 16.033 33.729C16.033 32.601 16.962 31.683 18.104 31.683C19.246 31.683 20.175 32.601 20.175 33.729C20.175 34.858 19.246 35.776 18.104 35.776ZM16.969 24.224C16.969 24.771 16.52 25.214 15.967 25.214H3.14C2.586 25.214 2.138 24.771 2.138 24.224C2.138 23.677 2.586 23.234 3.14 23.234H15.967C16.52 23.234 16.969 23.677 16.969 24.224Z" fill="#243F4D"/>
</g>
<defs>
<clipPath id="clip0_172_24">
<rect width="73" height="52" fill="white"/>
</clipPath>
</defs>
</svg>
