<svg width="6" height="10" viewBox="0 0 6 10" fill="none" xmlns="http://www.w3.org/2000/svg">
<path fill-rule="evenodd" clip-rule="evenodd" d="M0.48 9.55968C0.599 9.55968 0.718 9.51368 0.811 9.41968L5.032 5.15468C5.036 5.14968 5.04 5.14568 5.045 5.14168C5.085 5.09868 5.117 5.04968 5.14 4.99768C5.17 4.92968 5.185 4.85368 5.185 4.77968C5.185 4.77868 5.185 4.77868 5.185 4.77768C5.185 4.70568 5.17 4.63268 5.141 4.56668C5.141 4.56668 5.141 4.56568 5.141 4.56468C5.117 4.51168 5.085 4.46168 5.043 4.41768C5.04 4.41268 5.036 4.40868 5.032 4.40568L0.811 0.140684C0.617 -0.0543163 0.314 -0.0453163 0.131 0.159684C0.043 0.258684 0 0.385684 0 0.511684C0 0.647684 0.05 0.783684 0.149 0.883684L4.006 4.77968L0.149 8.67668C0.05 8.77668 0 8.91268 0 9.04768C0 9.17468 0.043 9.30168 0.131 9.40068C0.226 9.50668 0.353 9.55968 0.48 9.55968Z" fill="#243F4D"/>
</svg>
