<svg width="7" height="12" viewBox="0 0 7 12" fill="none" xmlns="http://www.w3.org/2000/svg">
<g clip-path="url(#clip0_109_13)">
<path fill-rule="evenodd" clip-rule="evenodd" d="M1.33303 11.687C1.18403 11.687 1.03403 11.626 0.922029 11.504C0.819029 11.39 0.767029 11.245 0.767029 11.1C0.767029 10.943 0.826029 10.789 0.944029 10.673L5.49103 6.19801L0.944029 1.72401C0.826029 1.60901 0.767029 1.45301 0.767029 1.29701C0.767029 1.15201 0.819029 1.00701 0.922029 0.893015C1.13803 0.657015 1.49603 0.647015 1.72303 0.870015L6.70003 5.76801C6.70503 5.77201 6.70903 5.77701 6.71403 5.78201C6.76203 5.83101 6.80103 5.88901 6.82703 5.95101C6.86103 6.02901 6.88003 6.11201 6.88003 6.19501C6.88003 6.19601 6.88003 6.19701 6.88003 6.19801C6.88003 6.28401 6.86203 6.36901 6.82703 6.44701C6.82703 6.44801 6.82603 6.44801 6.82603 6.44801C6.82603 6.44801 6.82603 6.44901 6.82603 6.45001C6.79903 6.50901 6.76203 6.56501 6.71503 6.61401C6.71003 6.61901 6.70503 6.62301 6.70003 6.62801L1.72303 11.527C1.61403 11.635 1.47303 11.687 1.33303 11.687Z" fill="#262626"/>
</g>
<defs>
<clipPath id="clip0_109_13">
<rect width="7" height="12" fill="white"/>
</clipPath>
</defs>
</svg>
