<svg width="22" height="9" viewBox="0 0 22 9" fill="none" xmlns="http://www.w3.org/2000/svg">
<path fill-rule="evenodd" clip-rule="evenodd" d="M0.296 5.476L0.288 5.474H17.244L17.1674 8.333C17.1674 8.333 17.1674 8.423 17.1674 8.5V8.73438L17.316 8.916C17.37 8.97 17.443 9 17.52 9C17.597 9 17.669 8.97 17.724 8.916L21.916 4.704C21.97 4.65 22 4.5 22 4.5L21.916 4.296L17.724 0.083C17.669 0.03 17.597 0 17.52 0C17.443 0 17.37 0.03 17.316 0.083L17.144 0.257C17.144 0.257 17.144 0.398562 17.144 0.476562C17.144 0.553562 17.144 0.66 17.144 0.66L17.257 3.525H0.292C0.133 3.525 0 3.662 0 3.821V5.191C0 5.35 0.137 5.476 0.296 5.476Z" fill="#436372"/>
</svg>
