<svg width="14" height="14" viewBox="0 0 14 14" fill="none" xmlns="http://www.w3.org/2000/svg">
<path fill-rule="evenodd" clip-rule="evenodd" d="M13.689 12.752C13.689 12.979 13.497 13.163 13.261 13.163H0.428C0.192 13.163 0 12.979 0 12.752C0 9.762 2.097 7.261 4.941 6.462C3.906 5.845 3.209 4.751 3.209 3.496C3.209 1.568 4.84 0 6.845 0C8.849 0 10.481 1.568 10.481 3.496C10.481 4.751 9.784 5.845 8.748 6.462C11.592 7.261 13.689 9.762 13.689 12.752ZM9.625 3.496C9.625 2.022 8.378 0.823 6.845 0.823C5.312 0.823 4.064 2.022 4.064 3.496C4.064 4.971 5.312 6.17 6.845 6.17C8.378 6.17 9.625 4.971 9.625 3.496ZM6.845 6.993C3.686 6.993 1.091 9.356 0.871 12.34H12.818C12.598 9.356 10.003 6.993 6.845 6.993Z" fill="white"/>
</svg>
