<svg width="19" height="17" viewBox="0 0 19 17" fill="none" xmlns="http://www.w3.org/2000/svg">
<path fill-rule="evenodd" clip-rule="evenodd" d="M18.9358 3.93414L16.8127 11.8901C16.7437 12.1491 16.5077 12.3301 16.2397 12.3301H5.88475C5.87575 12.3281 5.86775 12.3281 5.86175 12.3301C4.53275 12.3311 3.65675 12.8231 3.18175 13.8391C3.08175 14.0531 2.86775 14.1801 2.64475 14.1801C2.56075 14.1801 2.47575 14.1631 2.39475 14.1241C2.09875 13.9861 1.96975 13.6341 2.10875 13.3371C2.68775 12.0981 3.73575 11.3641 5.16275 11.1861L4.10775 5.79514C4.04475 5.47514 4.25375 5.16314 4.57475 5.10014C4.89575 5.03414 5.20675 5.24814 5.27075 5.56814L6.36175 11.1461H15.7848L17.5917 4.37514H4.31375C4.30575 4.37514 4.29775 4.37514 4.28975 4.37514C2.16175 4.37514 0.320751 2.79114 0.006751 0.682141C-0.042249 0.357141 0.180751 0.056141 0.504751 0.00814102C0.819751 -0.046859 1.12875 0.183141 1.17775 0.507141C1.40675 2.03914 2.74475 3.18914 4.29275 3.18914C4.29875 3.18914 4.30475 3.18914 4.31075 3.18914H18.3628C18.5468 3.18914 18.7208 3.27514 18.8328 3.42114C18.9448 3.56714 18.9828 3.75714 18.9358 3.93414ZM5.52675 12.8331C5.52875 12.8331 5.52975 12.8331 5.53275 12.8331C6.08275 12.8331 6.60175 13.0471 6.99375 13.4351C7.38575 13.8291 7.60175 14.3481 7.60175 14.9021C7.60375 15.7421 7.10275 16.4951 6.32475 16.8191C6.06675 16.9271 5.79475 16.9801 5.52575 16.9801C4.98975 16.9801 4.46275 16.7701 4.06475 16.3731C3.46775 15.7791 3.29075 14.8931 3.61175 14.1131C3.93375 13.3361 4.68575 12.8331 5.52675 12.8331ZM4.90075 15.5351C5.15675 15.7891 5.53775 15.8641 5.86975 15.7261C6.20275 15.5871 6.41775 15.2631 6.41675 14.9031C6.41675 14.6661 6.32375 14.4431 6.15675 14.2741C5.99075 14.1091 5.76775 14.0171 5.53275 14.0171C5.52975 14.0171 5.52875 14.0171 5.52875 14.0171C5.16675 14.0171 4.84475 14.2321 4.70675 14.5661C4.56975 14.8991 4.64475 15.2811 4.90075 15.5351ZM13.9178 12.8331C14.4638 12.7931 14.9978 13.0511 15.3858 13.4361C15.7778 13.8291 15.9928 14.3481 15.9928 14.9021C15.9958 15.7411 15.4958 16.4951 14.7188 16.8191C14.4588 16.9271 14.1868 16.9781 13.9178 16.9801C13.3808 16.9801 12.8538 16.7701 12.4568 16.3731C11.8598 15.7781 11.6828 14.8931 12.0048 14.1131C12.3258 13.3361 13.0768 12.8331 13.9178 12.8331ZM13.2928 15.5351C13.5488 15.7901 13.9308 15.8641 14.2628 15.7261C14.5948 15.5871 14.8098 15.2631 14.8088 14.9031C14.8088 14.6661 14.7168 14.4431 14.5488 14.2741C14.3838 14.1111 14.1568 14.0171 13.9238 14.0171C13.5928 14.0491 13.2378 14.2321 13.0998 14.5651C12.9608 14.8991 13.0368 15.2811 13.2928 15.5351Z" fill="#243F4D"/>
</svg>
