<svg width="18" height="15" viewBox="0 0 18 15" fill="none" xmlns="http://www.w3.org/2000/svg">
<path fill-rule="evenodd" clip-rule="evenodd" d="M16.714 12.327H5.766L3.303 14.689C3.24609 14.778 3.13254 14.778 3.13254 14.778C3.13254 14.778 2.889 14.799 2.836 14.778C2.676 14.714 2.571 14.564 2.571 14.398V12.327H1.286C0.577 12.327 0 11.774 0 11.094V1.233C0 0.553 0.577 0 1.286 0H16.714C17.423 0 18 0.32 18 1V11.094C18 11.774 17.423 12.327 16.714 12.327ZM17.143 1.20968C17.143 0.982678 16.95 0.822 16.714 0.822H1.286C1.049 0.822 0.857 1.006 0.857 1.233V11.094C0.857 11.321 1.049 11.505 1.286 11.505H2.1C3.237 11.505 3.428 11.689 3.428 11.916V13.406L5.285 11.626C5.366 11.549 5.475 11.505 5.588 11.505H16.714C16.95 11.505 17.143 11.321 17.143 11.094V1.20968ZM12.343 6.78C11.988 6.78 11.7 6.504 11.7 6.164C11.7 5.823 11.988 5.547 12.343 5.547C12.698 5.547 12.986 5.823 12.986 6.164C12.986 6.504 12.698 6.78 12.343 6.78ZM9 6.78C8.68972 6.78 8.357 6.504 8.357 6.164C8.357 5.823 8.58594 5.5 9 5.5C9.41406 5.5 9.643 5.823 9.643 6.164C9.643 6.504 9.31028 6.78 9 6.78ZM5.414 6.78C5.059 6.78 4.772 6.504 4.772 6.164C4.772 5.823 5.059 5.547 5.414 5.547C5.769 5.547 6.057 5.823 6.057 6.164C6.057 6.504 5.769 6.78 5.414 6.78Z" fill="#436372"/>
</svg>
