<svg width="9" height="16" viewBox="0 0 9 16" fill="none" xmlns="http://www.w3.org/2000/svg">
<path fill-rule="evenodd" clip-rule="evenodd" d="M6.087 0C6.5 0 6.915 0.022 7.327 0.04C7.595 0.051 7.864 0.09 8.116 0.117L8.097 2.602H7.899C7.627 2.602 7.354 2.599 7.081 2.599C6.877 2.599 6.672 2.6 6.468 2.607C5.809 2.629 5.324 2.876 5.291 3.699C5.27 4.291 5.255 5.6 5.254 5.668C5.288 5.668 5.939 5.67 6.594 5.67C6.921 5.67 7.241 5.67 7.465 5.668H7.996C7.863 6.623 7.741 7.538 7.608 8.46H5.254L5.201 15.431H2.311L2.364 8.449H0L0.021 5.673H2.396L2.398 5.465C2.402 4.906 2.395 4.346 2.416 3.787C2.424 3.436 2.443 3.074 2.507 2.722C2.667 1.873 3.061 1.159 3.773 0.649C4.396 0.205 5.105 0.018 5.857 0.002C5.933 3.95812e-09 6.01 0 6.087 0Z" fill="#A1A1A1"/>
</svg>
